<svg width="172" height="40" viewBox="0 0 172 40" fill="none" xmlns="http://www.w3.org/2000/svg">
<rect x="0.5" y="0.5" width="171" height="39" rx="7.5" fill="#FCDB2B"/>
<rect x="0.5" y="0.5" width="171" height="39" rx="7.5" stroke="black"/>
<path d="M31.8456 13.5857L31.8291 13.576L31.7911 13.5644C31.8064 13.5773 31.8256 13.5848 31.8456 13.5857Z" fill="black"/>
<path d="M31.8505 13.574C31.8484 13.5737 31.8464 13.5733 31.8444 13.5726C31.8443 13.5739 31.8443 13.5753 31.8444 13.5766C31.8467 13.5763 31.8487 13.5755 31.8505 13.574Z" fill="black"/>
<path d="M32.0699 15.2913L32.0977 15.2754L32.108 15.2696L32.1174 15.2596C32.0998 15.2673 32.0837 15.278 32.0699 15.2913Z" fill="black"/>
<path d="M31.8919 13.6193L31.8648 13.5935L31.8464 13.5835C31.8563 13.601 31.8726 13.6138 31.8919 13.6193Z" fill="black"/>
<path d="M25.067 30.2577C25.0453 30.2671 25.0264 30.2817 25.0118 30.3003L25.0289 30.2894C25.0405 30.2787 25.057 30.2661 25.067 30.2577Z" fill="black"/>
<path d="M29.0333 29.4776C29.0333 29.453 29.0214 29.4576 29.0243 29.5448C29.0243 29.5377 29.0272 29.5306 29.0285 29.5239C29.0301 29.5083 29.0314 29.4931 29.0333 29.4776Z" fill="black"/>
<path d="M28.6217 30.2577C28.6 30.2671 28.581 30.2817 28.5665 30.3003L28.5836 30.2894C28.5953 30.2787 28.6117 30.2661 28.6217 30.2577Z" fill="black"/>
<path d="M22.2774 30.4462C22.261 30.4319 22.2409 30.4225 22.2193 30.4191C22.2368 30.4275 22.2542 30.4359 22.2658 30.4423L22.2774 30.4462Z" fill="black"/>
<path d="M21.6523 29.8433C21.6498 29.818 21.6419 29.7933 21.6294 29.771C21.6383 29.7942 21.6457 29.8179 21.6517 29.8421L21.6523 29.8433Z" fill="black"/>
<path d="M25.868 19.083C25.006 19.4521 24.0276 19.8705 22.7597 19.8705C22.2293 19.8694 21.7015 19.7967 21.1905 19.6542L22.0674 28.6575C22.0985 29.0338 22.2699 29.3846 22.5477 29.6404C22.8255 29.8962 23.1893 30.0382 23.5669 30.0381C23.5669 30.0381 24.8103 30.1026 25.2251 30.1026C25.6717 30.1026 27.0106 30.0381 27.0106 30.0381C27.3882 30.0381 27.7519 29.896 28.0296 29.6403C28.3073 29.3845 28.4787 29.0337 28.5097 28.6574L29.449 18.7084C29.0292 18.565 28.6056 18.4698 28.1281 18.4698C27.3022 18.4695 26.6367 18.754 25.868 19.083Z" fill="white"/>
<path d="M18.4746 15.2487L18.4895 15.2626L18.4992 15.2684C18.4917 15.2611 18.4835 15.2544 18.4746 15.2487Z" fill="black"/>
<path d="M33.5049 14.4146L33.3729 13.7485C33.2544 13.1509 32.9854 12.5862 32.372 12.3702C32.1753 12.3011 31.9522 12.2714 31.8015 12.1283C31.6507 11.9853 31.6061 11.7632 31.5712 11.5572C31.5067 11.1791 31.446 10.8007 31.3798 10.4233C31.3226 10.0988 31.2774 9.73426 31.1285 9.43656C30.9348 9.03682 30.5328 8.80306 30.1331 8.64845C29.9283 8.57197 29.7193 8.50733 29.5071 8.45474C28.5084 8.19128 27.4584 8.09442 26.4311 8.03922C25.1979 7.97117 23.9615 7.9917 22.7312 8.10056C21.8155 8.18386 20.8511 8.28461 19.981 8.60136C19.663 8.71725 19.3352 8.8564 19.0934 9.1021C18.7967 9.40397 18.6998 9.87085 18.9165 10.2473C19.0705 10.5147 19.3314 10.7035 19.6081 10.8285C19.9685 10.9895 20.3449 11.112 20.731 11.194C21.8062 11.4317 22.9198 11.5249 24.0182 11.5647C25.2356 11.6138 26.4551 11.574 27.6667 11.4455C27.9663 11.4126 28.2654 11.3731 28.564 11.327C28.9156 11.2731 29.1413 10.8133 29.0376 10.493C28.9136 10.1101 28.5804 9.96157 28.2036 10.0194C28.1481 10.0281 28.0929 10.0362 28.0374 10.0442L27.9973 10.0501C27.8696 10.0662 27.742 10.0813 27.6143 10.0953C27.3507 10.1237 27.0863 10.147 26.8214 10.165C26.2279 10.2064 25.6329 10.2254 25.0381 10.2264C24.4537 10.2264 23.869 10.2099 23.2859 10.1715C23.0199 10.1541 22.7544 10.1319 22.4897 10.105C22.3692 10.0924 22.2491 10.0792 22.129 10.0643L22.0147 10.0498L21.9899 10.0462L21.8714 10.0291C21.6292 9.99261 21.3871 9.95064 21.1475 9.89992C21.1233 9.89453 21.1017 9.88109 21.0862 9.86178C21.0707 9.84248 21.0623 9.81842 21.0623 9.79368C21.0623 9.76893 21.0707 9.74488 21.0862 9.72557C21.1017 9.70626 21.1233 9.69282 21.1475 9.68744H21.152C21.3596 9.64322 21.5689 9.60541 21.7787 9.5725C21.8487 9.56152 21.9188 9.55074 21.9892 9.54024H21.9912C22.1226 9.53154 22.2546 9.50797 22.3854 9.49245C23.5231 9.3741 24.6676 9.33378 25.8107 9.3717C26.3658 9.38786 26.9204 9.42045 27.4729 9.47666C27.5916 9.48893 27.7099 9.50184 27.8281 9.5164C27.8733 9.52189 27.9188 9.52834 27.9643 9.53384L28.056 9.54706C28.3233 9.5869 28.5892 9.63522 28.8538 9.69202C29.2458 9.77725 29.7491 9.80504 29.9235 10.2345C29.979 10.3707 30.0042 10.5222 30.0349 10.6652L30.0739 10.8476C30.075 10.8509 30.0756 10.8542 30.0761 10.8576C30.1685 11.2881 30.2609 11.7186 30.3535 12.1491C30.3602 12.1809 30.3605 12.2137 30.3539 12.2456C30.3475 12.2775 30.3345 12.3077 30.3159 12.3343C30.2972 12.3609 30.2732 12.3834 30.2455 12.4004C30.2177 12.4174 30.1868 12.4285 30.1546 12.4329H30.152L30.0955 12.4406L30.0397 12.448C29.8627 12.4711 29.6856 12.4926 29.5082 12.5126C29.1588 12.5525 28.809 12.5869 28.4586 12.6159C27.7622 12.6738 27.0646 12.7118 26.3654 12.7299C26.0091 12.7393 25.653 12.7438 25.297 12.7431C23.8799 12.742 22.4641 12.6597 21.0564 12.4965C20.904 12.4784 20.7516 12.459 20.5992 12.4393C20.7174 12.4545 20.5134 12.4277 20.472 12.4218C20.3752 12.4083 20.2783 12.3942 20.1814 12.3795C19.8563 12.3308 19.5331 12.2707 19.2086 12.2181C18.8163 12.1535 18.4411 12.1858 18.0863 12.3795C17.7951 12.539 17.5593 12.7833 17.4105 13.0802C17.2575 13.3966 17.212 13.7411 17.1435 14.0811C17.0751 14.4211 16.9685 14.7869 17.0089 15.1359C17.0957 15.8892 17.6223 16.5014 18.3798 16.6383C19.0924 16.7674 19.8088 16.872 20.5272 16.9611C23.3492 17.3067 26.2002 17.348 29.0311 17.0845C29.2616 17.063 29.4918 17.0394 29.7217 17.0141C29.7935 17.0062 29.8662 17.0145 29.9343 17.0383C30.0025 17.0621 30.0645 17.1009 30.1158 17.1518C30.167 17.2027 30.2063 17.2645 30.2305 17.3324C30.2549 17.4005 30.2636 17.473 30.2563 17.5449L30.1846 18.2416C30.0402 19.6496 29.8958 21.0575 29.7513 22.4651C29.6007 23.9435 29.449 25.4217 29.2964 26.8998C29.2534 27.3161 29.2103 27.7323 29.1672 28.1484C29.1259 28.5581 29.1201 28.9808 29.0423 29.3856C28.9196 30.0224 28.4886 30.4133 27.8596 30.5564C27.2833 30.6875 26.6947 30.7563 26.1038 30.7617C25.4487 30.7653 24.7939 30.7362 24.1388 30.7398C23.4395 30.7437 22.5829 30.6791 22.0431 30.1586C21.5688 29.7015 21.5032 28.9856 21.4386 28.3667C21.3526 27.5472 21.2672 26.7279 21.1826 25.9087L20.708 21.3533L20.4009 18.4057C20.3958 18.357 20.3906 18.3089 20.3857 18.2598C20.3489 17.9082 20.1 17.564 19.7077 17.5817C19.3719 17.5967 18.9903 17.8821 19.0297 18.2598L19.2573 20.445L19.7281 24.9651C19.8622 26.2491 19.996 27.5333 20.1294 28.8177C20.1552 29.0637 20.1794 29.3104 20.2066 29.5565C20.3542 30.9009 21.3809 31.6254 22.6523 31.8295C23.395 31.9489 24.1556 31.9735 24.9092 31.9857C25.8753 32.0012 26.8509 32.0384 27.8012 31.8634C29.2092 31.6051 30.2657 30.6648 30.4165 29.2065C30.4595 28.7854 30.5025 28.3643 30.5456 27.9431C30.6888 26.55 30.8317 25.1568 30.9744 23.7635L31.4413 19.211L31.6553 17.1246C31.6659 17.0211 31.7097 16.9239 31.7799 16.8472C31.8501 16.7705 31.9432 16.7184 32.0454 16.6987C32.448 16.6202 32.8329 16.4863 33.1192 16.1799C33.5753 15.6919 33.666 15.0558 33.5049 14.4146ZM18.3592 14.8647C18.3654 14.8618 18.354 14.9144 18.3492 14.9389C18.3482 14.9018 18.3502 14.8689 18.3592 14.8647ZM18.3983 15.1669C18.4016 15.1646 18.4112 15.1775 18.4212 15.193C18.406 15.1789 18.3964 15.1682 18.398 15.1669H18.3983ZM18.4367 15.2176C18.458 15.256 18.4506 15.2412 18.4367 15.2176ZM18.5139 15.2802H18.5158C18.5158 15.2825 18.5194 15.2847 18.5207 15.287C18.5185 15.2845 18.5161 15.2823 18.5136 15.2802H18.5139ZM32.0267 15.1866C31.8821 15.3241 31.6642 15.388 31.4488 15.42C29.0337 15.7784 26.5835 15.9599 24.1419 15.8798C22.3945 15.82 20.6655 15.626 18.9356 15.3816C18.7661 15.3577 18.5824 15.3267 18.4658 15.2017C18.2463 14.9661 18.3541 14.4914 18.4113 14.2066C18.4636 13.9457 18.5636 13.598 18.8739 13.5609C19.3583 13.5041 19.9207 13.7085 20.3999 13.7811C20.9767 13.8691 21.5558 13.9396 22.1369 13.9926C24.6172 14.2186 27.1392 14.1834 29.6086 13.8528C30.0586 13.7923 30.5071 13.722 30.9539 13.6419C31.352 13.5706 31.7935 13.4366 32.034 13.8489C32.199 14.1298 32.221 14.5056 32.1954 14.823C32.1876 14.9613 32.1272 15.0914 32.0266 15.1866H32.0267Z" fill="black"/>
<path d="M53.2328 26.296C52.7168 25.96 52.4108 25.624 52.3148 25.288C52.2308 24.952 52.3508 24.682 52.6748 24.478C52.7468 24.43 52.8848 24.424 53.0888 24.46C53.3048 24.496 53.4668 24.568 53.5748 24.676C53.8148 24.892 54.0848 25.024 54.3848 25.072C54.6968 25.132 55.0748 25.102 55.5188 24.982C56.0228 24.826 56.4068 24.634 56.6708 24.406C56.9468 24.166 57.2528 23.842 57.5888 23.434C57.8408 23.11 58.0148 22.792 58.1108 22.48C58.2188 22.168 58.2668 21.886 58.2548 21.634C58.2548 21.37 58.1948 21.172 58.0748 21.04C57.7748 20.62 57.4028 20.332 56.9588 20.176C56.5148 20.008 55.9328 20.02 55.2128 20.212C55.1288 20.224 55.0028 20.248 54.8348 20.284C54.6668 20.32 54.5168 20.356 54.3848 20.392C54.2528 20.416 54.1808 20.428 54.1688 20.428C54.0848 20.452 54.0188 20.464 53.9708 20.464C53.9228 20.464 53.8628 20.524 53.7908 20.644C53.7308 20.752 53.6348 20.986 53.5028 21.346C53.3708 21.694 53.1728 22.234 52.9088 22.966C52.6568 23.698 52.4408 24.22 52.2608 24.532C52.0928 24.832 51.9428 24.97 51.8108 24.946C51.6788 24.91 51.5288 24.778 51.3608 24.55C51.2648 24.382 51.1568 24.196 51.0368 23.992C50.9288 23.788 50.9348 23.578 51.0548 23.362C51.1148 23.254 51.1628 23.158 51.1988 23.074C51.2348 22.978 51.2828 22.816 51.3428 22.588C51.4028 22.408 51.5168 22.096 51.6848 21.652C51.8648 21.196 52.0748 20.668 52.3148 20.068C52.5548 19.456 52.8068 18.826 53.0708 18.178C53.3348 17.53 53.5868 16.918 53.8268 16.342C54.0788 15.766 54.2888 15.28 54.4568 14.884C54.6248 14.512 54.7268 14.242 54.7628 14.074C54.7988 13.906 54.7868 13.816 54.7268 13.804C54.7268 13.744 54.7088 13.69 54.6728 13.642C54.6368 13.582 54.6248 13.528 54.6368 13.48C54.6368 13.432 54.7388 13.366 54.9428 13.282C55.1588 13.198 55.3868 13.12 55.6268 13.048C55.8668 12.976 56.0408 12.952 56.1488 12.976C56.2088 12.976 56.2808 12.976 56.3648 12.976C56.4488 12.964 56.4908 12.934 56.4908 12.886C56.5268 12.886 56.6408 12.874 56.8328 12.85C57.0248 12.826 57.2348 12.826 57.4628 12.85C58.2668 12.922 58.9268 13.156 59.4428 13.552C59.9588 13.936 60.2108 14.554 60.1988 15.406C60.1868 15.61 60.1028 15.874 59.9468 16.198C59.7908 16.522 59.5928 16.846 59.3528 17.17C59.1248 17.494 58.8788 17.776 58.6148 18.016C58.4588 18.148 58.2908 18.286 58.1108 18.43C57.9428 18.562 57.7928 18.676 57.6608 18.772C57.5408 18.856 57.4808 18.898 57.4808 18.898C57.4808 18.898 57.5288 18.916 57.6248 18.952C57.7208 18.988 57.8228 19.024 57.9308 19.06C58.4828 19.264 58.9148 19.522 59.2268 19.834C59.5508 20.146 59.7788 20.578 59.9108 21.13C59.9588 21.31 59.9588 21.532 59.9108 21.796C59.8748 22.06 59.8208 22.324 59.7488 22.588C59.6768 22.84 59.5988 23.056 59.5148 23.236C59.4308 23.32 59.3648 23.41 59.3168 23.506C59.2688 23.59 59.2448 23.632 59.2448 23.632C59.2448 23.656 59.1968 23.752 59.1008 23.92C59.0048 24.076 58.8908 24.25 58.7588 24.442C58.6268 24.634 58.5008 24.802 58.3808 24.946C58.2608 25.042 58.0868 25.174 57.8588 25.342C57.6428 25.522 57.4028 25.696 57.1388 25.864C56.8868 26.032 56.6468 26.158 56.4188 26.242C56.0828 26.386 55.7048 26.482 55.2848 26.53C54.8768 26.59 54.4868 26.596 54.1148 26.548C53.7428 26.512 53.4488 26.428 53.2328 26.296ZM54.5288 18.826C54.5288 18.826 54.6248 18.808 54.8168 18.772C55.0208 18.724 55.2428 18.676 55.4828 18.628C55.7228 18.568 55.9028 18.514 56.0228 18.466C56.0828 18.43 56.1668 18.382 56.2748 18.322C56.3948 18.262 56.5148 18.172 56.6348 18.052C56.8028 17.896 56.9828 17.722 57.1748 17.53C57.3668 17.326 57.5528 17.11 57.7328 16.882C57.9248 16.654 58.0868 16.408 58.2188 16.144C58.4948 15.712 58.6448 15.4 58.6688 15.208C58.6928 15.016 58.6268 14.842 58.4708 14.686C58.3628 14.554 58.2128 14.458 58.0208 14.398C57.8288 14.326 57.6188 14.29 57.3908 14.29C57.1748 14.278 56.9648 14.302 56.7608 14.362C56.6048 14.41 56.4848 14.47 56.4008 14.542C56.3168 14.602 56.2748 14.698 56.2748 14.83C56.2748 14.938 56.2388 15.052 56.1668 15.172C56.1068 15.28 56.0468 15.364 55.9868 15.424C55.9748 15.508 55.9328 15.592 55.8608 15.676C55.8008 15.748 55.7708 15.784 55.7708 15.784C55.7708 15.832 55.6928 15.982 55.5368 16.234C55.3928 16.474 55.2368 16.822 55.0688 17.278C54.8528 17.794 54.7088 18.166 54.6368 18.394C54.5648 18.622 54.5288 18.766 54.5288 18.826ZM65.0487 24.964C64.9287 24.844 64.8327 24.682 64.7607 24.478C64.6887 24.262 64.6167 24.016 64.5447 23.74C64.5207 23.644 64.5087 23.536 64.5087 23.416C64.5207 23.296 64.5207 23.2 64.5087 23.128C64.4727 23.212 64.4127 23.32 64.3287 23.452C64.2567 23.584 64.1847 23.68 64.1127 23.74C64.0647 23.788 63.9567 23.884 63.7887 24.028C63.6207 24.16 63.4527 24.268 63.2847 24.352C62.8887 24.604 62.5347 24.724 62.2227 24.712C61.9227 24.688 61.6587 24.532 61.4307 24.244C61.2387 24.088 61.0827 23.89 60.9627 23.65C60.8427 23.41 60.8187 23.122 60.8907 22.786C60.9147 22.366 60.9747 21.958 61.0707 21.562C61.1667 21.154 61.3647 20.614 61.6647 19.942C61.9167 19.45 62.1087 19.066 62.2407 18.79C62.3727 18.514 62.4567 18.352 62.4927 18.304C62.6727 18.244 62.8947 18.25 63.1587 18.322C63.4227 18.382 63.5667 18.496 63.5907 18.664C63.6627 18.784 63.6627 19.012 63.5907 19.348C63.5187 19.672 63.3747 20.044 63.1587 20.464C62.9907 20.872 62.8287 21.268 62.6727 21.652C62.5287 22.036 62.4387 22.36 62.4027 22.624C62.3787 22.888 62.4507 23.05 62.6187 23.11C62.7267 23.17 62.8827 23.164 63.0867 23.092C63.3027 23.02 63.5547 22.804 63.8427 22.444C64.1307 22.084 64.4367 21.514 64.7607 20.734C64.8567 20.494 64.9287 20.284 64.9767 20.104C65.0247 19.912 65.0547 19.702 65.0667 19.474C65.0427 19.33 65.0787 19.18 65.1747 19.024C65.2827 18.868 65.4087 18.748 65.5527 18.664C65.6007 18.604 65.6667 18.55 65.7507 18.502C65.8347 18.442 65.8887 18.442 65.9127 18.502L66.2007 18.484C66.2487 18.472 66.3027 18.52 66.3627 18.628C66.4227 18.736 66.4827 18.814 66.5427 18.862C66.6747 18.97 66.7347 19.204 66.7227 19.564C66.7107 19.924 66.5667 20.428 66.2907 21.076C66.0627 21.568 65.9067 21.94 65.8227 22.192C65.7507 22.444 65.7087 22.69 65.6967 22.93C65.6967 23.146 65.7147 23.332 65.7507 23.488C65.7867 23.632 65.8947 23.782 66.0747 23.938C66.2067 24.022 66.2787 24.166 66.2907 24.37C66.3147 24.562 66.3207 24.73 66.3087 24.874C66.2847 24.982 66.1887 25.054 66.0207 25.09C65.8647 25.138 65.6907 25.15 65.4987 25.126C65.3187 25.102 65.1687 25.048 65.0487 24.964ZM67.2108 28.744C66.7788 28.828 66.3648 28.84 65.9688 28.78C65.5728 28.732 65.2428 28.63 64.9788 28.474C64.7028 28.318 64.5348 28.144 64.4748 27.952C64.4028 27.676 64.4388 27.472 64.5828 27.34C64.7268 27.208 64.9008 27.13 65.1048 27.106C65.2968 27.082 65.4228 27.106 65.4828 27.178C65.5788 27.238 65.7288 27.328 65.9328 27.448C66.1488 27.568 66.4128 27.598 66.7248 27.538C67.0008 27.478 67.2468 27.346 67.4628 27.142C67.6788 26.938 67.8708 26.722 68.0388 26.494C68.1348 26.35 68.2968 26.092 68.5248 25.72C68.7528 25.348 68.9868 24.94 69.2268 24.496C69.4788 24.04 69.6888 23.62 69.8568 23.236C69.8928 23.14 69.9348 23.026 69.9828 22.894C70.0308 22.762 70.0908 22.654 70.1628 22.57C70.2348 22.426 70.2948 22.294 70.3428 22.174C70.4028 22.042 70.4388 21.952 70.4508 21.904C70.4628 21.844 70.5168 21.724 70.6128 21.544C70.7088 21.364 70.7988 21.184 70.8828 21.004C70.9428 20.824 71.0328 20.56 71.1528 20.212C71.2728 19.864 71.3928 19.582 71.5128 19.366C71.6568 19.09 71.7708 18.868 71.8548 18.7C71.9508 18.52 72.0528 18.412 72.1608 18.376C72.2688 18.292 72.3708 18.25 72.4668 18.25C72.5628 18.25 72.6768 18.286 72.8088 18.358C72.9528 18.502 73.0668 18.646 73.1508 18.79C73.2468 18.922 73.2828 19.09 73.2588 19.294C73.2468 19.486 73.1508 19.75 72.9708 20.086C72.8748 20.374 72.7668 20.638 72.6468 20.878C72.5388 21.106 72.4548 21.256 72.3948 21.328C72.3348 21.472 72.2628 21.634 72.1788 21.814C72.1068 21.982 72.0408 22.138 71.9808 22.282C71.7648 22.762 71.5788 23.152 71.4228 23.452C71.2668 23.752 71.1288 24.028 71.0088 24.28C70.8888 24.532 70.7628 24.826 70.6308 25.162C70.3548 25.606 70.0848 26.026 69.8208 26.422C69.5688 26.83 69.2988 27.208 69.0108 27.556C68.8908 27.664 68.7168 27.802 68.4888 27.97C68.2728 28.15 68.0448 28.312 67.8048 28.456C67.5768 28.612 67.3788 28.708 67.2108 28.744ZM69.4608 24.676C69.2808 24.652 69.0828 24.532 68.8668 24.316C68.6628 24.1 68.4888 23.872 68.3448 23.632C68.2128 23.392 68.1588 23.224 68.1828 23.128C68.1828 23.068 68.1828 23.02 68.1828 22.984C68.1828 22.948 68.1828 22.93 68.1828 22.93C68.1108 22.93 68.0508 22.828 68.0028 22.624C67.9668 22.408 67.9368 22.138 67.9128 21.814C67.9008 21.49 67.8948 21.154 67.8948 20.806C67.9068 20.458 67.9248 20.14 67.9488 19.852C67.9968 19.648 68.0208 19.426 68.0208 19.186C68.0208 18.934 68.0268 18.736 68.0388 18.592C68.0268 18.4 68.0628 18.244 68.1468 18.124C68.2428 18.004 68.3148 17.926 68.3628 17.89C68.8068 17.698 69.1308 17.8 69.3348 18.196C69.5388 18.592 69.6108 19.222 69.5508 20.086C69.5268 20.566 69.5148 21.028 69.5148 21.472C69.5148 21.904 69.5568 22.276 69.6408 22.588C69.7248 22.9 69.8688 23.122 70.0728 23.254C70.1568 23.302 70.1868 23.404 70.1628 23.56C70.1388 23.716 70.0848 23.884 70.0008 24.064C69.9168 24.232 69.8208 24.382 69.7128 24.514C69.6168 24.634 69.5328 24.688 69.4608 24.676ZM79.541 24.856C79.277 24.856 79.079 24.844 78.947 24.82C78.827 24.796 78.737 24.76 78.677 24.712C78.617 24.664 78.539 24.598 78.443 24.514C78.395 24.418 78.311 24.298 78.191 24.154C78.071 23.998 77.987 23.896 77.939 23.848C77.891 23.668 77.873 23.422 77.885 23.11C77.909 22.798 77.963 22.462 78.047 22.102C78.131 21.742 78.233 21.418 78.353 21.13C78.401 21.034 78.443 20.938 78.479 20.842C78.515 20.746 78.533 20.698 78.533 20.698C78.533 20.638 78.605 20.494 78.749 20.266C78.905 20.038 79.073 19.798 79.253 19.546C79.445 19.294 79.601 19.114 79.721 19.006C79.805 18.91 79.931 18.808 80.099 18.7C80.279 18.592 80.435 18.514 80.567 18.466C80.699 18.418 80.879 18.358 81.107 18.286C81.335 18.202 81.539 18.16 81.719 18.16C81.887 18.16 82.067 18.196 82.259 18.268C82.451 18.34 82.613 18.466 82.745 18.646C82.961 18.862 83.099 19.12 83.159 19.42C83.219 19.72 83.225 19.978 83.177 20.194C83.117 20.434 82.997 20.632 82.817 20.788C82.637 20.932 82.445 21.01 82.241 21.022C82.037 21.022 81.857 20.938 81.701 20.77C81.653 20.674 81.629 20.596 81.629 20.536C81.629 20.464 81.653 20.362 81.701 20.23C81.749 20.062 81.773 19.912 81.773 19.78C81.773 19.648 81.719 19.582 81.611 19.582C81.455 19.582 81.329 19.63 81.233 19.726C81.137 19.81 80.993 19.954 80.801 20.158C80.717 20.254 80.609 20.392 80.477 20.572C80.345 20.752 80.213 20.95 80.081 21.166C79.961 21.37 79.853 21.58 79.757 21.796C79.625 22.192 79.541 22.45 79.505 22.57C79.481 22.678 79.469 22.732 79.469 22.732C79.469 22.78 79.463 22.828 79.451 22.876C79.439 22.912 79.433 22.954 79.433 23.002C79.433 23.146 79.517 23.26 79.685 23.344C79.817 23.428 79.925 23.47 80.009 23.47C80.105 23.458 80.285 23.392 80.549 23.272C80.741 23.176 80.921 23.05 81.089 22.894C81.269 22.738 81.455 22.6 81.647 22.48C81.779 22.396 81.881 22.324 81.953 22.264C82.037 22.204 82.079 22.198 82.079 22.246C82.079 22.294 82.097 22.318 82.133 22.318C82.169 22.318 82.211 22.294 82.259 22.246C82.331 22.15 82.421 22.114 82.529 22.138C82.637 22.15 82.733 22.18 82.817 22.228C82.913 22.276 82.961 22.318 82.961 22.354C82.937 22.462 82.961 22.552 83.033 22.624C83.033 22.672 83.015 22.738 82.979 22.822C82.955 22.894 82.919 22.954 82.871 23.002C82.811 23.086 82.721 23.206 82.601 23.362C82.493 23.518 82.391 23.656 82.295 23.776C82.199 23.896 82.151 23.956 82.151 23.956C82.103 23.944 82.055 23.956 82.007 23.992C81.971 24.028 81.929 24.07 81.881 24.118C81.785 24.202 81.695 24.268 81.611 24.316C81.527 24.352 81.461 24.37 81.413 24.37C81.329 24.418 81.263 24.448 81.215 24.46C81.179 24.472 81.161 24.502 81.161 24.55C81.041 24.67 80.825 24.754 80.513 24.802C80.201 24.838 79.877 24.856 79.541 24.856ZM86.1533 24.856C85.9013 24.904 85.7093 24.892 85.5773 24.82C85.4573 24.736 85.3313 24.634 85.1993 24.514C85.0073 24.418 84.8333 24.286 84.6773 24.118C84.5213 23.938 84.4013 23.752 84.3173 23.56C84.2333 23.368 84.1973 23.218 84.2093 23.11C84.2453 22.69 84.3413 22.234 84.4973 21.742C84.6653 21.25 84.8753 20.77 85.1273 20.302C85.3913 19.834 85.6853 19.42 86.0093 19.06C86.3453 18.688 86.7053 18.418 87.0893 18.25C87.3293 18.154 87.5873 18.118 87.8633 18.142C88.1393 18.166 88.3253 18.28 88.4213 18.484C88.6013 18.832 88.5593 19.054 88.2953 19.15C88.2593 19.15 88.2173 19.168 88.1693 19.204C88.1213 19.228 88.0973 19.264 88.0973 19.312C88.1453 19.336 88.2773 19.342 88.4933 19.33C88.7093 19.306 88.9253 19.27 89.1413 19.222C89.3693 19.162 89.5193 19.102 89.5913 19.042C89.6633 19.006 89.7173 18.988 89.7533 18.988C89.7893 18.988 89.8793 19 90.0233 19.024C90.2273 19.084 90.3293 19.156 90.3293 19.24C90.3293 19.288 90.3473 19.366 90.3833 19.474C90.4193 19.57 90.4613 19.618 90.5093 19.618C90.5933 19.63 90.6113 19.714 90.5633 19.87C90.5273 20.026 90.3893 20.188 90.1493 20.356C89.9213 20.5 89.7773 20.596 89.7173 20.644C89.6693 20.68 89.6633 20.764 89.6993 20.896C89.7953 21.124 89.7893 21.4 89.6813 21.724C89.5733 22.048 89.3933 22.384 89.1413 22.732C88.8893 23.08 88.5893 23.41 88.2413 23.722C87.9053 24.022 87.5513 24.28 87.1793 24.496C86.8193 24.7 86.4773 24.82 86.1533 24.856ZM86.2073 23.344C86.2553 23.344 86.3393 23.32 86.4593 23.272C86.5793 23.212 86.6753 23.164 86.7473 23.128C86.7953 23.08 86.8553 23.026 86.9273 22.966C87.0113 22.894 87.0773 22.852 87.1253 22.84C87.1733 22.84 87.2033 22.822 87.2153 22.786C87.2273 22.738 87.2693 22.648 87.3413 22.516C87.4133 22.372 87.5573 22.162 87.7733 21.886C88.0133 21.622 88.1693 21.412 88.2413 21.256C88.3133 21.088 88.3193 20.908 88.2593 20.716C88.2473 20.668 88.2113 20.638 88.1513 20.626C88.1033 20.614 88.0373 20.584 87.9533 20.536C87.8333 20.536 87.7493 20.566 87.7013 20.626C87.6653 20.674 87.5813 20.644 87.4493 20.536L87.1613 20.176L86.8553 20.482C86.6633 20.674 86.4893 20.914 86.3333 21.202C86.1893 21.49 86.0753 21.784 85.9913 22.084C85.9073 22.384 85.8533 22.648 85.8293 22.876C85.8173 23.056 85.8473 23.176 85.9193 23.236C85.9913 23.296 86.0873 23.332 86.2073 23.344ZM95.3748 27.124C95.3028 27.172 95.1348 27.136 94.8708 27.016C94.6188 26.908 94.4088 26.758 94.2408 26.566C94.1568 26.47 94.1028 26.368 94.0788 26.26C94.0548 26.152 94.0608 25.948 94.0968 25.648C94.1448 25.516 94.1688 25.372 94.1688 25.216C94.1808 25.072 94.1868 24.976 94.1868 24.928C94.1868 24.856 94.2048 24.688 94.2408 24.424C94.2888 24.16 94.3368 23.884 94.3848 23.596C94.4328 23.296 94.4748 23.068 94.5108 22.912C94.5108 22.9 94.5168 22.87 94.5288 22.822C94.5408 22.774 94.5528 22.732 94.5648 22.696C94.5888 22.588 94.6188 22.444 94.6548 22.264C94.7028 22.084 94.7448 21.862 94.7808 21.598C94.8408 21.37 94.9008 21.19 94.9608 21.058C95.0208 20.914 95.0628 20.764 95.0868 20.608C94.9428 20.608 94.7568 20.62 94.5288 20.644C94.3128 20.668 94.0908 20.704 93.8628 20.752C93.6348 20.788 93.4368 20.824 93.2688 20.86C93.1128 20.884 93.0228 20.908 92.9988 20.932C92.9508 20.956 92.8968 21.04 92.8368 21.184C92.7888 21.316 92.7348 21.496 92.6748 21.724C92.6148 21.94 92.5608 22.192 92.5128 22.48C92.3688 23.032 92.2908 23.602 92.2788 24.19C92.2668 24.766 92.2968 25.192 92.3688 25.468C92.4408 25.756 92.4048 26.014 92.2608 26.242C92.1288 26.482 91.9908 26.632 91.8468 26.692C91.6188 26.704 91.3908 26.506 91.1628 26.098C90.9348 25.69 90.8208 25.192 90.8208 24.604C90.7728 24.112 90.8148 23.488 90.9468 22.732C91.0788 21.964 91.2768 21.106 91.5408 20.158C91.6368 19.834 91.7688 19.45 91.9368 19.006C92.1048 18.562 92.2788 18.124 92.4588 17.692C92.6508 17.26 92.8188 16.9 92.9628 16.612C93.1068 16.312 93.1968 16.144 93.2328 16.108C93.3048 16.132 93.3408 16.078 93.3408 15.946C93.3408 15.922 93.3888 15.832 93.4848 15.676C93.5808 15.52 93.6708 15.352 93.7548 15.172C93.9108 14.944 94.1088 14.71 94.3488 14.47C94.6008 14.23 94.8528 14.014 95.1048 13.822C95.3688 13.618 95.5968 13.48 95.7888 13.408C95.9688 13.336 96.1488 13.3 96.3288 13.3C96.6288 13.3 96.9168 13.396 97.1928 13.588C97.4688 13.78 97.6668 14.032 97.7868 14.344C97.9908 14.104 98.2308 13.894 98.5068 13.714C98.7828 13.522 98.9988 13.366 99.1548 13.246C99.4188 13.114 99.6348 13.024 99.8028 12.976C99.9708 12.928 100.181 12.904 100.433 12.904C100.661 12.904 100.877 12.976 101.081 13.12C101.297 13.264 101.483 13.408 101.639 13.552C101.807 13.732 101.903 13.852 101.927 13.912C101.951 13.972 101.963 14.086 101.963 14.254C101.939 14.374 101.867 14.548 101.747 14.776C101.627 14.992 101.483 15.22 101.315 15.46C101.159 15.7 101.009 15.91 100.865 16.09C100.733 16.258 100.643 16.342 100.595 16.342C100.319 16.426 100.181 16.282 100.181 15.91C100.181 15.826 100.133 15.748 100.037 15.676C99.9528 15.592 99.9108 15.55 99.9108 15.55C99.9108 15.514 99.9168 15.448 99.9288 15.352C99.9528 15.244 99.9888 15.148 100.037 15.064C100.097 14.944 100.109 14.824 100.073 14.704C100.049 14.584 99.9708 14.542 99.8388 14.578C99.8028 14.602 99.7308 14.656 99.6228 14.74C99.5268 14.812 99.4188 14.896 99.2988 14.992C99.1908 15.076 99.0948 15.166 99.0108 15.262C98.9268 15.346 98.8848 15.406 98.8848 15.442C98.8848 15.442 98.8608 15.496 98.8128 15.604C98.7648 15.7 98.6748 15.826 98.5428 15.982C98.4588 16.102 98.3808 16.222 98.3088 16.342C98.2488 16.45 98.2188 16.516 98.2188 16.54C98.2188 16.588 98.2128 16.642 98.2008 16.702C98.2008 16.75 98.1708 16.774 98.1108 16.774C98.1108 16.774 98.0928 16.828 98.0568 16.936C98.0208 17.044 97.9548 17.182 97.8588 17.35C97.8108 17.47 97.7508 17.596 97.6788 17.728C97.6068 17.848 97.5468 17.932 97.4988 17.98H97.5168C97.5168 17.98 97.4868 18.046 97.4268 18.178C97.3788 18.31 97.3248 18.448 97.2648 18.592C97.2048 18.724 97.1748 18.802 97.1748 18.826C97.1748 18.874 97.2468 18.898 97.3908 18.898C97.5468 18.898 97.7268 18.88 97.9308 18.844C98.1468 18.796 98.3508 18.748 98.5428 18.7C98.7108 18.652 98.8248 18.628 98.8848 18.628C98.9448 18.628 99.0648 18.652 99.2448 18.7C99.3408 18.76 99.4188 18.88 99.4788 19.06C99.5508 19.228 99.5988 19.396 99.6228 19.564C99.6588 19.72 99.6588 19.822 99.6228 19.87C99.6108 19.918 99.4788 19.984 99.2268 20.068C98.9748 20.152 98.7228 20.218 98.4708 20.266C98.2548 20.314 98.0148 20.368 97.7508 20.428C97.4868 20.488 97.2528 20.542 97.0488 20.59C96.8568 20.638 96.7608 20.68 96.7608 20.716C96.7128 20.716 96.6708 20.746 96.6348 20.806C96.5988 20.854 96.5808 20.896 96.5808 20.932C96.5808 21.1 96.5568 21.226 96.5088 21.31C96.4848 21.382 96.4428 21.514 96.3828 21.706C96.3228 21.898 96.2568 22.114 96.1848 22.354C96.1248 22.582 96.0708 22.792 96.0228 22.984C95.9868 23.176 95.9688 23.308 95.9688 23.38C95.8968 23.464 95.8548 23.572 95.8428 23.704C95.8308 23.824 95.8248 23.932 95.8248 24.028C95.7768 24.124 95.7468 24.214 95.7348 24.298C95.7228 24.37 95.7168 24.43 95.7168 24.478C95.7168 24.49 95.7168 24.514 95.7168 24.55C95.7168 24.586 95.7108 24.622 95.6988 24.658C95.6868 24.778 95.6688 24.934 95.6448 25.126C95.6328 25.33 95.6268 25.528 95.6268 25.72L95.5728 26.242C95.5608 26.398 95.5368 26.566 95.5008 26.746C95.4768 26.938 95.4348 27.064 95.3748 27.124ZM93.7728 19.42C93.8208 19.42 93.9288 19.408 94.0968 19.384C94.2768 19.348 94.4928 19.306 94.7448 19.258C94.9968 19.21 95.2608 19.168 95.5368 19.132L95.6448 18.934C95.8248 18.43 95.9748 18.028 96.0948 17.728C96.2148 17.416 96.3348 17.134 96.4548 16.882L96.4908 16.72C96.4908 16.696 96.5148 16.624 96.5628 16.504C96.6228 16.384 96.6528 16.264 96.6528 16.144C96.7368 15.736 96.8028 15.448 96.8508 15.28C96.8988 15.1 96.8988 14.986 96.8508 14.938C96.8028 14.89 96.6708 14.866 96.4548 14.866C96.3948 14.854 96.2988 14.872 96.1668 14.92C96.0468 14.968 95.9328 15.028 95.8248 15.1C95.7288 15.16 95.6808 15.22 95.6808 15.28V15.352C95.6448 15.34 95.5548 15.412 95.4108 15.568C95.2788 15.724 95.1228 15.922 94.9428 16.162C94.7748 16.402 94.6188 16.642 94.4748 16.882C94.3788 17.086 94.2648 17.35 94.1328 17.674C94.0008 17.998 93.8328 18.424 93.6288 18.952L93.4848 19.384L93.7728 19.42ZM101.171 24.838C100.703 24.646 100.379 24.334 100.199 23.902C100.019 23.47 99.9708 22.894 100.055 22.174C100.079 21.802 100.067 21.556 100.019 21.436C99.9708 21.304 99.8808 21.178 99.7488 21.058C99.7128 21.01 99.6288 20.932 99.4968 20.824C99.3648 20.704 99.3048 20.614 99.3168 20.554C99.3048 20.47 99.3228 20.368 99.3708 20.248C99.4188 20.116 99.4608 20.044 99.4968 20.032C99.5808 19.996 99.6648 19.954 99.7488 19.906C99.8448 19.858 99.9168 19.846 99.9648 19.87C100.013 19.87 100.085 19.9 100.181 19.96C100.289 20.02 100.343 20.074 100.343 20.122C100.391 20.206 100.463 20.17 100.559 20.014C100.667 19.858 100.781 19.66 100.901 19.42C101.021 19.228 101.171 19.048 101.351 18.88C101.531 18.712 101.711 18.562 101.891 18.43C102.083 18.286 102.245 18.178 102.377 18.106C102.437 18.082 102.551 18.046 102.719 17.998C102.899 17.95 103.085 17.914 103.277 17.89C103.469 17.854 103.613 17.842 103.709 17.854C103.925 17.866 104.153 17.956 104.393 18.124C104.633 18.292 104.819 18.448 104.951 18.592C105.107 18.7 105.209 18.868 105.257 19.096C105.317 19.312 105.341 19.54 105.329 19.78C105.317 20.02 105.269 20.224 105.185 20.392C105.149 20.512 105.023 20.68 104.807 20.896C104.591 21.112 104.351 21.322 104.087 21.526C103.835 21.718 103.619 21.85 103.439 21.922C103.283 21.958 103.097 21.988 102.881 22.012C102.665 22.024 102.461 22.024 102.269 22.012C102.089 21.988 101.963 21.958 101.891 21.922C101.807 21.874 101.735 21.892 101.675 21.976C101.627 22.048 101.585 22.252 101.549 22.588C101.537 22.72 101.537 22.834 101.549 22.93C101.573 23.026 101.597 23.098 101.621 23.146C101.705 23.29 101.789 23.398 101.873 23.47C101.957 23.53 102.113 23.548 102.341 23.524C102.569 23.5 102.797 23.362 103.025 23.11C103.265 22.846 103.481 22.636 103.673 22.48C103.721 22.396 103.823 22.342 103.979 22.318C104.147 22.282 104.345 22.294 104.573 22.354C104.705 22.438 104.765 22.57 104.753 22.75C104.753 22.93 104.657 23.194 104.465 23.542C104.429 23.626 104.327 23.752 104.159 23.92C104.003 24.076 103.829 24.238 103.637 24.406C103.457 24.562 103.307 24.676 103.187 24.748C102.827 24.94 102.473 25.03 102.125 25.018C101.777 25.006 101.459 24.946 101.171 24.838ZM102.503 20.788C102.683 20.74 102.833 20.692 102.953 20.644C103.085 20.596 103.211 20.518 103.331 20.41C103.451 20.302 103.589 20.14 103.745 19.924C103.793 19.792 103.817 19.678 103.817 19.582C103.829 19.486 103.823 19.426 103.799 19.402C103.703 19.306 103.595 19.276 103.475 19.312C103.367 19.336 103.247 19.396 103.115 19.492C103.031 19.528 102.911 19.606 102.755 19.726C102.611 19.834 102.467 19.96 102.323 20.104C102.191 20.236 102.083 20.362 101.999 20.482C101.927 20.59 101.915 20.656 101.963 20.68C101.939 20.728 102.005 20.758 102.161 20.77C102.329 20.782 102.443 20.788 102.503 20.788ZM109.45 24.64C109.09 24.844 108.706 24.964 108.298 25C107.902 25.024 107.53 24.97 107.182 24.838C106.834 24.694 106.552 24.484 106.336 24.208C106.216 24.052 106.102 23.806 105.994 23.47C105.886 23.122 105.868 22.654 105.94 22.066C106.012 21.514 106.18 20.956 106.444 20.392C106.72 19.828 107.056 19.33 107.452 18.898C107.848 18.466 108.28 18.172 108.748 18.016C108.916 17.956 109.084 17.914 109.252 17.89C109.432 17.854 109.666 17.848 109.954 17.872C110.23 17.908 110.476 17.98 110.692 18.088C110.908 18.184 111.064 18.292 111.16 18.412C111.352 18.604 111.478 18.79 111.538 18.97C111.598 19.15 111.622 19.324 111.61 19.492C111.55 19.876 111.376 20.29 111.088 20.734C110.812 21.178 110.422 21.508 109.918 21.724C109.714 21.808 109.474 21.862 109.198 21.886C108.922 21.91 108.544 21.874 108.064 21.778C107.776 21.718 107.584 21.748 107.488 21.868C107.404 21.988 107.368 22.222 107.38 22.57C107.404 22.786 107.452 22.978 107.524 23.146C107.608 23.302 107.758 23.41 107.974 23.47C108.25 23.518 108.448 23.524 108.568 23.488C108.688 23.44 108.838 23.374 109.018 23.29C109.114 23.23 109.204 23.164 109.288 23.092C109.384 23.02 109.474 22.948 109.558 22.876C109.654 22.804 109.732 22.75 109.792 22.714C109.852 22.666 109.912 22.636 109.972 22.624C110.032 22.612 110.092 22.606 110.152 22.606C110.284 22.618 110.41 22.69 110.53 22.822C110.65 22.954 110.728 23.08 110.764 23.2C110.764 23.296 110.704 23.434 110.584 23.614C110.464 23.782 110.302 23.962 110.098 24.154C109.906 24.334 109.69 24.496 109.45 24.64ZM109.216 20.626C109.3 20.59 109.42 20.506 109.576 20.374C109.744 20.242 109.894 20.104 110.026 19.96C110.158 19.804 110.224 19.684 110.224 19.6C110.224 19.468 110.134 19.354 109.954 19.258C109.786 19.162 109.564 19.144 109.288 19.204C109.192 19.228 109.078 19.294 108.946 19.402C108.814 19.51 108.682 19.636 108.55 19.78C108.418 19.912 108.304 20.044 108.208 20.176C108.112 20.296 108.046 20.392 108.01 20.464C108.058 20.524 108.154 20.572 108.298 20.608C108.442 20.644 108.598 20.662 108.766 20.662C108.946 20.662 109.096 20.65 109.216 20.626ZM117.374 27.07C117.182 27.07 117.032 26.986 116.924 26.818C116.816 26.65 116.762 26.542 116.762 26.494C116.774 26.41 116.792 26.332 116.816 26.26C116.84 26.2 116.858 26.14 116.87 26.08C116.894 25.96 116.906 25.816 116.906 25.648C116.906 25.492 116.924 25.192 116.96 24.748C116.996 24.268 117.026 23.872 117.05 23.56C117.086 23.248 117.122 22.972 117.158 22.732C117.194 22.492 117.236 22.252 117.284 22.012C117.332 21.76 117.398 21.454 117.482 21.094C117.542 20.686 117.542 20.434 117.482 20.338C117.434 20.242 117.344 20.188 117.212 20.176C116.984 20.152 116.786 20.092 116.618 19.996C116.45 19.888 116.342 19.762 116.294 19.618C116.174 19.498 116.144 19.39 116.204 19.294C116.276 19.198 116.408 19.12 116.6 19.06C116.792 18.988 116.996 18.958 117.212 18.97C117.416 18.958 117.572 18.946 117.68 18.934C117.8 18.91 117.896 18.85 117.968 18.754C118.04 18.646 118.112 18.466 118.184 18.214C118.208 18.106 118.25 17.968 118.31 17.8C118.382 17.632 118.448 17.482 118.508 17.35C118.568 17.218 118.598 17.152 118.598 17.152C118.706 17.068 118.76 16.96 118.76 16.828C118.772 16.66 118.85 16.438 118.994 16.162C119.15 15.874 119.396 15.472 119.732 14.956C120.14 14.428 120.542 13.996 120.938 13.66C121.346 13.312 121.772 13.102 122.216 13.03C122.264 13.006 122.372 12.994 122.54 12.994C122.708 12.994 122.822 12.994 122.882 12.994C123.134 13.006 123.35 13.078 123.53 13.21C123.722 13.33 123.872 13.492 123.98 13.696C124.076 13.852 124.094 14.08 124.034 14.38C123.986 14.668 123.914 14.884 123.818 15.028C123.758 15.124 123.638 15.256 123.458 15.424C123.29 15.592 123.122 15.742 122.954 15.874C122.786 16.006 122.678 16.072 122.63 16.072C122.57 16.072 122.48 16.024 122.36 15.928C122.24 15.832 122.168 15.766 122.144 15.73C122.096 15.586 122.108 15.454 122.18 15.334C122.264 15.202 122.348 15.076 122.432 14.956C122.552 14.776 122.618 14.656 122.63 14.596C122.642 14.536 122.63 14.488 122.594 14.452C122.558 14.404 122.522 14.32 122.486 14.2L122.648 14.362C122.564 14.314 122.492 14.296 122.432 14.308C122.372 14.32 122.276 14.35 122.144 14.398C121.916 14.518 121.772 14.614 121.712 14.686C121.664 14.746 121.592 14.824 121.496 14.92C121.208 15.172 120.998 15.472 120.866 15.82C120.734 16.156 120.59 16.48 120.434 16.792C120.386 16.888 120.302 17.068 120.182 17.332C120.074 17.584 119.972 17.824 119.876 18.052C119.792 18.268 119.714 18.436 119.642 18.556C119.57 18.664 119.534 18.736 119.534 18.772C119.498 18.856 119.516 18.898 119.588 18.898C119.672 18.898 119.834 18.892 120.074 18.88C120.662 18.808 121.07 18.814 121.298 18.898C121.538 18.97 121.682 19.102 121.73 19.294C121.934 19.582 121.88 19.792 121.568 19.924C121.268 20.044 120.776 20.152 120.092 20.248C119.9 20.26 119.75 20.272 119.642 20.284C119.534 20.284 119.45 20.29 119.39 20.302C119.342 20.314 119.294 20.332 119.246 20.356C119.198 20.38 119.144 20.5 119.084 20.716C119.072 20.848 119.048 20.98 119.012 21.112C118.988 21.232 118.97 21.376 118.958 21.544C118.91 21.688 118.874 21.838 118.85 21.994C118.838 22.15 118.802 22.288 118.742 22.408C118.67 23.068 118.616 23.692 118.58 24.28C118.544 24.856 118.496 25.354 118.436 25.774C118.388 26.194 118.286 26.512 118.13 26.728C118.046 26.824 117.914 26.92 117.734 27.016C117.566 27.112 117.446 27.13 117.374 27.07ZM123.454 24.856C123.202 24.904 123.01 24.892 122.878 24.82C122.758 24.736 122.632 24.634 122.5 24.514C122.308 24.418 122.134 24.286 121.978 24.118C121.822 23.938 121.702 23.752 121.618 23.56C121.534 23.368 121.498 23.218 121.51 23.11C121.546 22.69 121.642 22.234 121.798 21.742C121.966 21.25 122.176 20.77 122.428 20.302C122.692 19.834 122.986 19.42 123.31 19.06C123.646 18.688 124.006 18.418 124.39 18.25C124.63 18.154 124.888 18.118 125.164 18.142C125.44 18.166 125.626 18.28 125.722 18.484C125.902 18.832 125.86 19.054 125.596 19.15C125.56 19.15 125.518 19.168 125.47 19.204C125.422 19.228 125.398 19.264 125.398 19.312C125.446 19.336 125.578 19.342 125.794 19.33C126.01 19.306 126.226 19.27 126.442 19.222C126.67 19.162 126.82 19.102 126.892 19.042C126.964 19.006 127.018 18.988 127.054 18.988C127.09 18.988 127.18 19 127.324 19.024C127.528 19.084 127.63 19.156 127.63 19.24C127.63 19.288 127.648 19.366 127.684 19.474C127.72 19.57 127.762 19.618 127.81 19.618C127.894 19.63 127.912 19.714 127.864 19.87C127.828 20.026 127.69 20.188 127.45 20.356C127.222 20.5 127.078 20.596 127.018 20.644C126.97 20.68 126.964 20.764 127 20.896C127.096 21.124 127.09 21.4 126.982 21.724C126.874 22.048 126.694 22.384 126.442 22.732C126.19 23.08 125.89 23.41 125.542 23.722C125.206 24.022 124.852 24.28 124.48 24.496C124.12 24.7 123.778 24.82 123.454 24.856ZM123.508 23.344C123.556 23.344 123.64 23.32 123.76 23.272C123.88 23.212 123.976 23.164 124.048 23.128C124.096 23.08 124.156 23.026 124.228 22.966C124.312 22.894 124.378 22.852 124.426 22.84C124.474 22.84 124.504 22.822 124.516 22.786C124.528 22.738 124.57 22.648 124.642 22.516C124.714 22.372 124.858 22.162 125.074 21.886C125.314 21.622 125.47 21.412 125.542 21.256C125.614 21.088 125.62 20.908 125.56 20.716C125.548 20.668 125.512 20.638 125.452 20.626C125.404 20.614 125.338 20.584 125.254 20.536C125.134 20.536 125.05 20.566 125.002 20.626C124.966 20.674 124.882 20.644 124.75 20.536L124.462 20.176L124.156 20.482C123.964 20.674 123.79 20.914 123.634 21.202C123.49 21.49 123.376 21.784 123.292 22.084C123.208 22.384 123.154 22.648 123.13 22.876C123.118 23.056 123.148 23.176 123.22 23.236C123.292 23.296 123.388 23.332 123.508 23.344ZM128.608 24.514C128.5 24.43 128.38 24.322 128.248 24.19C128.128 24.058 128.086 23.872 128.122 23.632C128.158 23.296 128.206 23.002 128.266 22.75C128.326 22.486 128.398 22.186 128.482 21.85C128.506 21.706 128.566 21.46 128.662 21.112C128.77 20.764 128.896 20.386 129.04 19.978C129.184 19.57 129.334 19.186 129.49 18.826C129.646 18.454 129.784 18.178 129.904 17.998C130.036 17.878 130.228 17.818 130.48 17.818C130.744 17.818 130.924 17.866 131.02 17.962C131.152 18.07 131.194 18.262 131.146 18.538C131.098 18.802 130.93 19.216 130.642 19.78C130.582 19.924 130.504 20.08 130.408 20.248C130.324 20.404 130.264 20.536 130.228 20.644C130.192 20.74 130.204 20.782 130.264 20.77C130.336 20.638 130.468 20.488 130.66 20.32C130.852 20.14 131.056 19.966 131.272 19.798C131.488 19.63 131.692 19.48 131.884 19.348C132.076 19.216 132.208 19.132 132.28 19.096C132.376 19.036 132.484 18.988 132.604 18.952C132.736 18.904 132.826 18.868 132.874 18.844C133.15 18.712 133.45 18.664 133.774 18.7C134.11 18.724 134.314 18.826 134.386 19.006C134.398 19.102 134.434 19.174 134.494 19.222C134.566 19.27 134.602 19.294 134.602 19.294C134.65 19.294 134.674 19.312 134.674 19.348C134.686 19.384 134.692 19.402 134.692 19.402C134.692 19.486 134.608 19.606 134.44 19.762C134.284 19.918 134.11 20.002 133.918 20.014C133.762 20.026 133.624 20.056 133.504 20.104C133.384 20.152 133.24 20.212 133.072 20.284C132.616 20.548 132.202 20.782 131.83 20.986C131.47 21.19 131.098 21.502 130.714 21.922C130.63 22.018 130.54 22.108 130.444 22.192C130.348 22.276 130.252 22.396 130.156 22.552C130.096 22.612 130.036 22.744 129.976 22.948C129.916 23.152 129.862 23.35 129.814 23.542C129.778 23.722 129.76 23.83 129.76 23.866C129.76 23.866 129.742 23.926 129.706 24.046C129.67 24.154 129.61 24.262 129.526 24.37C129.382 24.562 129.238 24.682 129.094 24.73C128.962 24.778 128.8 24.706 128.608 24.514ZM139.615 24.334C139.579 24.286 139.501 24.226 139.381 24.154C139.261 24.082 139.201 24.022 139.201 23.974C139.201 23.95 139.195 23.92 139.183 23.884C139.183 23.848 139.159 23.83 139.111 23.83C139.075 23.794 139.093 23.662 139.165 23.434C139.249 23.206 139.357 22.936 139.489 22.624C139.633 22.312 139.783 22.012 139.939 21.724C140.095 21.424 140.227 21.184 140.335 21.004C140.395 20.968 140.431 20.92 140.443 20.86C140.467 20.788 140.467 20.752 140.443 20.752C140.443 20.752 140.473 20.698 140.533 20.59C140.605 20.47 140.659 20.392 140.695 20.356C140.791 20.188 140.863 20.02 140.911 19.852C140.959 19.672 140.971 19.522 140.947 19.402C140.899 19.342 140.845 19.324 140.785 19.348C140.725 19.372 140.695 19.384 140.695 19.384C140.647 19.396 140.575 19.42 140.479 19.456C140.395 19.48 140.317 19.516 140.245 19.564C139.969 19.756 139.765 19.852 139.633 19.852C139.513 19.852 139.393 19.708 139.273 19.42C139.225 19.288 139.207 19.162 139.219 19.042C139.231 18.922 139.279 18.826 139.363 18.754C139.459 18.67 139.579 18.586 139.723 18.502C139.867 18.406 139.963 18.34 140.011 18.304C140.143 18.22 140.329 18.13 140.569 18.034C140.809 17.938 140.953 17.884 141.001 17.872C141.313 17.776 141.577 17.776 141.793 17.872C142.009 17.956 142.171 18.124 142.279 18.376C142.447 18.58 142.531 18.796 142.531 19.024C142.531 19.252 142.447 19.534 142.279 19.87L142.099 20.14C142.039 20.26 142.027 20.32 142.063 20.32C142.111 20.32 142.165 20.278 142.225 20.194C142.261 20.146 142.333 20.074 142.441 19.978C142.549 19.882 142.621 19.834 142.657 19.834C142.657 19.834 142.669 19.828 142.693 19.816C142.729 19.804 142.747 19.756 142.747 19.672C142.783 19.636 142.819 19.6 142.855 19.564C142.903 19.528 142.927 19.51 142.927 19.51C142.975 19.51 143.035 19.486 143.107 19.438C143.191 19.378 143.329 19.27 143.521 19.114C143.653 19.018 143.773 18.97 143.881 18.97C144.157 18.886 144.379 18.976 144.547 19.24C144.727 19.504 144.817 19.846 144.817 20.266L144.439 21.238L145.087 20.446C145.159 20.35 145.231 20.266 145.303 20.194C145.387 20.122 145.459 20.062 145.519 20.014C145.543 19.93 145.579 19.882 145.627 19.87C145.675 19.858 145.699 19.852 145.699 19.852C145.699 19.852 145.711 19.852 145.735 19.852C145.759 19.84 145.771 19.816 145.771 19.78C145.831 19.732 145.897 19.69 145.969 19.654C146.041 19.606 146.089 19.558 146.113 19.51C146.317 19.426 146.563 19.414 146.851 19.474C147.139 19.522 147.343 19.672 147.463 19.924C147.547 20.068 147.625 20.194 147.697 20.302C147.769 20.41 147.805 20.572 147.805 20.788C147.781 20.968 147.757 21.094 147.733 21.166C147.721 21.238 147.709 21.316 147.697 21.4C147.685 21.472 147.667 21.604 147.643 21.796C147.595 21.892 147.565 21.994 147.553 22.102C147.553 22.21 147.553 22.312 147.553 22.408C147.553 22.564 147.559 22.672 147.571 22.732C147.583 22.78 147.631 22.804 147.715 22.804C147.883 22.768 148.021 22.714 148.129 22.642C148.249 22.558 148.381 22.45 148.525 22.318C148.705 22.15 148.861 22.126 148.993 22.246C149.137 22.354 149.227 22.48 149.263 22.624C149.287 22.672 149.263 22.78 149.191 22.948C149.119 23.116 149.035 23.278 148.939 23.434C148.843 23.59 148.765 23.668 148.705 23.668C148.669 23.668 148.597 23.716 148.489 23.812C148.381 23.908 148.297 23.974 148.237 24.01C148.153 24.094 148.069 24.172 147.985 24.244C147.913 24.316 147.829 24.352 147.733 24.352C147.685 24.352 147.625 24.37 147.553 24.406C147.493 24.43 147.421 24.442 147.337 24.442C147.217 24.478 147.031 24.46 146.779 24.388C146.539 24.316 146.383 24.148 146.311 23.884C146.263 23.752 146.191 23.584 146.095 23.38C146.011 23.176 145.993 22.924 146.041 22.624C146.089 22.408 146.119 22.21 146.131 22.03C146.143 21.85 146.167 21.724 146.203 21.652C146.203 21.616 146.203 21.532 146.203 21.4C146.203 21.256 146.185 21.184 146.149 21.184C146.101 21.184 146.011 21.244 145.879 21.364C145.747 21.484 145.591 21.646 145.411 21.85C145.231 22.042 145.045 22.252 144.853 22.48C144.673 22.708 144.511 22.936 144.367 23.164C144.259 23.296 144.163 23.458 144.079 23.65C143.995 23.842 143.935 23.95 143.899 23.974C143.815 24.07 143.671 24.082 143.467 24.01C143.275 23.938 143.131 23.824 143.035 23.668C142.999 23.596 142.957 23.554 142.909 23.542C142.861 23.518 142.819 23.482 142.783 23.434C142.759 23.374 142.759 23.26 142.783 23.092C142.819 22.924 142.897 22.654 143.017 22.282C143.149 21.874 143.263 21.508 143.359 21.184C143.467 20.848 143.521 20.68 143.521 20.68C143.521 20.632 143.431 20.68 143.251 20.824C143.071 20.956 142.861 21.124 142.621 21.328C142.513 21.46 142.369 21.628 142.189 21.832C142.021 22.036 141.823 22.276 141.595 22.552C141.379 22.828 141.133 23.152 140.857 23.524C140.509 24.016 140.245 24.316 140.065 24.424C139.897 24.532 139.747 24.502 139.615 24.334ZM151.339 24.838C150.871 24.646 150.547 24.334 150.367 23.902C150.187 23.47 150.139 22.894 150.223 22.174C150.247 21.802 150.235 21.556 150.187 21.436C150.139 21.304 150.049 21.178 149.917 21.058C149.881 21.01 149.797 20.932 149.665 20.824C149.533 20.704 149.473 20.614 149.485 20.554C149.473 20.47 149.491 20.368 149.539 20.248C149.587 20.116 149.629 20.044 149.665 20.032C149.749 19.996 149.833 19.954 149.917 19.906C150.013 19.858 150.085 19.846 150.133 19.87C150.181 19.87 150.253 19.9 150.349 19.96C150.457 20.02 150.511 20.074 150.511 20.122C150.559 20.206 150.631 20.17 150.727 20.014C150.835 19.858 150.949 19.66 151.069 19.42C151.189 19.228 151.339 19.048 151.519 18.88C151.699 18.712 151.879 18.562 152.059 18.43C152.251 18.286 152.413 18.178 152.545 18.106C152.605 18.082 152.719 18.046 152.887 17.998C153.067 17.95 153.253 17.914 153.445 17.89C153.637 17.854 153.781 17.842 153.877 17.854C154.093 17.866 154.321 17.956 154.561 18.124C154.801 18.292 154.987 18.448 155.119 18.592C155.275 18.7 155.377 18.868 155.425 19.096C155.485 19.312 155.509 19.54 155.497 19.78C155.485 20.02 155.437 20.224 155.353 20.392C155.317 20.512 155.191 20.68 154.975 20.896C154.759 21.112 154.519 21.322 154.255 21.526C154.003 21.718 153.787 21.85 153.607 21.922C153.451 21.958 153.265 21.988 153.049 22.012C152.833 22.024 152.629 22.024 152.437 22.012C152.257 21.988 152.131 21.958 152.059 21.922C151.975 21.874 151.903 21.892 151.843 21.976C151.795 22.048 151.753 22.252 151.717 22.588C151.705 22.72 151.705 22.834 151.717 22.93C151.741 23.026 151.765 23.098 151.789 23.146C151.873 23.29 151.957 23.398 152.041 23.47C152.125 23.53 152.281 23.548 152.509 23.524C152.737 23.5 152.965 23.362 153.193 23.11C153.433 22.846 153.649 22.636 153.841 22.48C153.889 22.396 153.991 22.342 154.147 22.318C154.315 22.282 154.513 22.294 154.741 22.354C154.873 22.438 154.933 22.57 154.921 22.75C154.921 22.93 154.825 23.194 154.633 23.542C154.597 23.626 154.495 23.752 154.327 23.92C154.171 24.076 153.997 24.238 153.805 24.406C153.625 24.562 153.475 24.676 153.355 24.748C152.995 24.94 152.641 25.03 152.293 25.018C151.945 25.006 151.627 24.946 151.339 24.838ZM152.671 20.788C152.851 20.74 153.001 20.692 153.121 20.644C153.253 20.596 153.379 20.518 153.499 20.41C153.619 20.302 153.757 20.14 153.913 19.924C153.961 19.792 153.985 19.678 153.985 19.582C153.997 19.486 153.991 19.426 153.967 19.402C153.871 19.306 153.763 19.276 153.643 19.312C153.535 19.336 153.415 19.396 153.283 19.492C153.199 19.528 153.079 19.606 152.923 19.726C152.779 19.834 152.635 19.96 152.491 20.104C152.359 20.236 152.251 20.362 152.167 20.482C152.095 20.59 152.083 20.656 152.131 20.68C152.107 20.728 152.173 20.758 152.329 20.77C152.497 20.782 152.611 20.788 152.671 20.788Z" fill="black"/>
</svg>
