<svg width="344" height="90" viewBox="0 0 344 90" fill="none" xmlns="http://www.w3.org/2000/svg">
<rect x="1" y="1" width="342" height="88" rx="15" fill="#FCDB2B"/>
<rect x="1" y="1" width="342" height="88" rx="15" stroke="black" stroke-width="2"/>
<path d="M63.6911 32.1714L63.6583 32.152L63.5821 32.1287C63.6127 32.1546 63.6511 32.1697 63.6911 32.1714Z" fill="black"/>
<path d="M63.7009 32.148C63.6969 32.1474 63.6927 32.1465 63.6888 32.1451C63.6887 32.1478 63.6887 32.1506 63.6888 32.1532C63.6933 32.1526 63.6975 32.1509 63.7009 32.148Z" fill="black"/>
<path d="M64.1399 35.5826L64.1955 35.5509L64.2161 35.5392L64.2348 35.5192C64.1995 35.5346 64.1674 35.556 64.1399 35.5826Z" fill="black"/>
<path d="M63.7838 32.2387L63.7296 32.187L63.6928 32.167C63.7125 32.202 63.7452 32.2277 63.7838 32.2387Z" fill="black"/>
<path d="M50.1341 65.5155C50.0907 65.5342 50.0527 65.5635 50.0236 65.6007L50.0578 65.5787C50.0811 65.5575 50.1141 65.5322 50.1341 65.5155Z" fill="black"/>
<path d="M58.0667 63.9553C58.0667 63.9061 58.0428 63.9153 58.0487 64.0896C58.0487 64.0754 58.0544 64.0612 58.0571 64.0477C58.0602 64.0166 58.0627 63.9862 58.0667 63.9553Z" fill="black"/>
<path d="M57.2434 65.5155C57.2 65.5342 57.1621 65.5635 57.1329 65.6007L57.1673 65.5787C57.1905 65.5575 57.2234 65.5322 57.2434 65.5155Z" fill="black"/>
<path d="M44.5549 65.8923C44.522 65.8637 44.4817 65.845 44.4386 65.8381C44.4735 65.855 44.5084 65.8717 44.5316 65.8846L44.5549 65.8923Z" fill="black"/>
<path d="M43.3047 64.6867C43.2996 64.6359 43.2839 64.5866 43.2588 64.5421C43.2766 64.5883 43.2915 64.6358 43.3034 64.6841L43.3047 64.6867Z" fill="black"/>
<path d="M51.736 43.166C50.012 43.9042 48.0553 44.7411 45.5194 44.7411C44.4586 44.7388 43.4029 44.5934 42.381 44.3083L44.1349 62.315C44.1969 63.0676 44.5398 63.7692 45.0954 64.2808C45.6509 64.7924 46.3786 65.0763 47.1338 65.0761C47.1338 65.0761 49.6205 65.2052 50.4503 65.2052C51.3435 65.2052 54.0213 65.0761 54.0213 65.0761C54.7765 65.0761 55.5038 64.7921 56.0592 64.2806C56.6146 63.769 56.9575 63.0674 57.0194 62.3148L58.8979 42.4168C58.0585 42.1301 57.2112 41.9397 56.2561 41.9397C54.6044 41.9391 53.2734 42.508 51.736 43.166Z" fill="white"/>
<path d="M36.9492 35.4975L36.979 35.5252L36.9984 35.5368C36.9834 35.5221 36.967 35.5089 36.9492 35.4975Z" fill="black"/>
<path d="M67.0098 33.8292L66.7458 32.497C66.5087 31.3017 65.9708 30.1723 64.7439 29.7403C64.3507 29.6022 63.9045 29.5428 63.6029 29.2567C63.3014 28.9706 63.2122 28.5263 63.1424 28.1144C63.0134 27.3582 62.892 26.6014 62.7595 25.8466C62.6453 25.1976 62.5548 24.4685 62.257 23.8731C61.8696 23.0736 61.0656 22.6061 60.2662 22.2969C59.8566 22.1439 59.4386 22.0147 59.0141 21.9095C57.0168 21.3826 54.9168 21.1888 52.8621 21.0784C50.3958 20.9423 47.9229 20.9834 45.4624 21.2011C43.6311 21.3677 41.7022 21.5692 39.962 22.2027C39.3259 22.4345 38.6704 22.7128 38.1868 23.2042C37.5933 23.8079 37.3996 24.7417 37.833 25.4947C38.1411 26.0294 38.6628 26.4071 39.2162 26.657C39.937 26.979 40.6898 27.224 41.462 27.388C43.6123 27.8633 45.8395 28.0499 48.0364 28.1293C50.4713 28.2276 52.9101 28.148 55.3334 27.891C55.9325 27.8252 56.5308 27.7462 57.1279 27.654C57.8312 27.5462 58.2825 26.6266 58.0751 25.9861C57.8272 25.2202 57.1608 24.9231 56.4072 25.0388C56.2962 25.0563 56.1858 25.0724 56.0747 25.0885L55.9946 25.1001C55.7392 25.1324 55.484 25.1625 55.2286 25.1906C54.7014 25.2474 54.1726 25.2939 53.6427 25.3301C52.4558 25.4127 51.2658 25.4508 50.0762 25.4527C48.9075 25.4527 47.7381 25.4198 46.5718 25.343C46.0397 25.3081 45.5088 25.2637 44.9794 25.21C44.7385 25.1848 44.4983 25.1583 44.2581 25.1286L44.0295 25.0996L43.9798 25.0924L43.7428 25.0582C43.2585 24.9852 42.7741 24.9013 42.295 24.7998C42.2467 24.7891 42.2034 24.7622 42.1724 24.7236C42.1415 24.685 42.1245 24.6368 42.1245 24.5874C42.1245 24.5379 42.1414 24.4898 42.1724 24.4511C42.2035 24.4125 42.2467 24.3856 42.295 24.3749H42.304C42.7193 24.2864 43.1378 24.2108 43.5575 24.145C43.6974 24.123 43.8377 24.1015 43.9785 24.0805H43.9823C44.2452 24.0631 44.5093 24.0159 44.7708 23.9849C47.0462 23.7482 49.3352 23.6676 51.6215 23.7434C52.7316 23.7757 53.8409 23.8409 54.9458 23.9533C55.1833 23.9779 55.4198 24.0037 55.6562 24.0328C55.7466 24.0438 55.8376 24.0567 55.9286 24.0677L56.1119 24.0941C56.6466 24.1738 57.1785 24.2704 57.7077 24.384C58.4916 24.5545 59.4983 24.6101 59.847 25.469C59.958 25.7415 60.0084 26.0443 60.0697 26.3304L60.1478 26.6952C60.1499 26.7017 60.1513 26.7084 60.1523 26.7152C60.337 27.5763 60.5219 28.4373 60.707 29.2982C60.7205 29.3618 60.7209 29.4275 60.7079 29.4912C60.695 29.5549 60.669 29.6154 60.6317 29.6686C60.5944 29.7219 60.5465 29.7669 60.491 29.8008C60.4355 29.8347 60.3736 29.8569 60.3092 29.8658H60.3039L60.191 29.8812L60.0793 29.896C59.7255 29.9421 59.3711 29.9851 59.0165 30.0252C58.3177 30.1049 57.618 30.1737 56.9172 30.2318C55.5244 30.3477 54.1291 30.4236 52.7307 30.4598C52.0183 30.4787 51.3061 30.4875 50.5941 30.4862C47.7597 30.484 44.9282 30.3193 42.1128 29.9929C41.808 29.9567 41.5032 29.918 41.1984 29.8786C41.4348 29.909 41.0267 29.8553 40.944 29.8437C40.7503 29.8166 40.5566 29.7883 40.3628 29.7591C39.7126 29.6616 39.0662 29.5415 38.4172 29.4362C37.6326 29.307 36.8823 29.3717 36.1726 29.7591C35.5901 30.0779 35.1187 30.5667 34.8211 31.1604C34.5149 31.7932 34.4239 32.4822 34.287 33.1622C34.1501 33.8422 33.937 34.5738 34.0178 35.2718C34.1914 36.7784 35.2446 38.0027 36.7596 38.2765C38.1848 38.5349 39.6176 38.7439 41.0544 38.9222C46.6985 39.6135 52.4004 39.696 58.0621 39.1689C58.5231 39.1259 58.9836 39.0789 59.4434 39.0282C59.587 39.0124 59.7323 39.029 59.8686 39.0766C60.005 39.1242 60.129 39.2018 60.2315 39.3036C60.334 39.4054 60.4125 39.5289 60.4611 39.6648C60.5098 39.8009 60.5273 39.9461 60.5126 40.0899L60.3692 41.4832C60.0804 44.2992 59.7916 47.1149 59.5027 49.9303C59.2014 52.887 58.898 55.8434 58.5928 58.7996C58.5067 59.6322 58.4206 60.4647 58.3344 61.2968C58.2519 62.1162 58.2403 62.9615 58.0845 63.7712C57.8393 65.0447 56.9771 65.8266 55.7192 66.1128C54.5667 66.375 53.3895 66.5127 52.2076 66.5235C50.8973 66.5306 49.5878 66.4725 48.2777 66.4795C46.879 66.4874 45.1658 66.3581 44.0861 65.3173C43.1375 64.4029 43.0064 62.9713 42.8773 61.7334C42.7051 60.0945 42.5343 58.4557 42.3652 56.8173L41.4159 47.7065L40.8019 41.8114C40.7915 41.714 40.7812 41.6178 40.7715 41.5196C40.6979 40.8164 40.1999 40.128 39.4154 40.1635C38.7438 40.1933 37.9805 40.7641 38.0594 41.5196L38.5146 45.89L39.4562 54.9303C39.7243 57.4983 39.9919 60.0666 40.2588 62.6354C40.3104 63.1274 40.3589 63.6208 40.4132 64.1129C40.7083 66.8018 42.7618 68.2507 45.3047 68.659C46.7899 68.8979 48.3113 68.947 49.8184 68.9715C51.7506 69.0024 53.7018 69.0767 55.6024 68.7268C58.4185 68.2102 60.5314 66.3296 60.8329 63.413C60.919 62.5708 61.0051 61.7286 61.0912 60.8861C61.3775 58.1 61.6634 55.3135 61.9487 52.527L62.8825 43.4219L63.3107 39.2491C63.3319 39.0422 63.4195 38.8477 63.5598 38.6943C63.7002 38.541 63.8864 38.4368 64.0907 38.3974C64.8959 38.2405 65.6658 37.9725 66.2384 37.3597C67.1506 36.3838 67.332 35.1116 67.0098 33.8292ZM36.7184 34.7293C36.7307 34.7236 36.7081 34.8288 36.6984 34.8778C36.6965 34.8037 36.7004 34.7378 36.7184 34.7293ZM36.7966 35.3338C36.8031 35.3292 36.8224 35.355 36.8425 35.3861C36.8121 35.3577 36.7928 35.3364 36.796 35.3338H36.7966ZM36.8734 35.4351C36.9161 35.512 36.9012 35.4824 36.8734 35.4351ZM37.0278 35.5605H37.0316C37.0316 35.565 37.0388 35.5694 37.0413 35.574C37.0371 35.569 37.0323 35.5645 37.0271 35.5605H37.0278ZM64.0535 35.3732C63.7642 35.6483 63.3285 35.776 62.8976 35.84C58.0675 36.5568 53.167 36.9197 48.2838 36.7595C44.7891 36.64 41.331 36.252 37.8712 35.7631C37.5322 35.7154 37.1647 35.6534 36.9317 35.4035C36.4925 34.9321 36.7082 33.9828 36.8226 33.4133C36.9272 32.8915 37.1273 32.196 37.7479 32.1218C38.7165 32.0082 39.8414 32.4169 40.7997 32.5622C41.9534 32.7383 43.1115 32.8792 44.2739 32.9851C49.2345 33.4372 54.2784 33.3668 59.2171 32.7055C60.1173 32.5846 61.0141 32.444 61.9079 32.2839C62.704 32.1412 63.5869 31.8732 64.068 32.6979C64.398 33.2597 64.442 34.0112 64.3909 34.646C64.3752 34.9226 64.2543 35.1828 64.0532 35.3732H64.0535Z" fill="black"/>
<path d="M106.466 57.592C105.434 56.92 104.822 56.248 104.63 55.576C104.462 54.904 104.702 54.364 105.35 53.956C105.494 53.86 105.77 53.848 106.178 53.92C106.61 53.992 106.934 54.136 107.15 54.352C107.63 54.784 108.17 55.048 108.77 55.144C109.394 55.264 110.15 55.204 111.038 54.964C112.046 54.652 112.814 54.268 113.342 53.812C113.894 53.332 114.506 52.684 115.178 51.868C115.682 51.22 116.03 50.584 116.222 49.96C116.438 49.336 116.534 48.772 116.51 48.268C116.51 47.74 116.39 47.344 116.15 47.08C115.55 46.24 114.806 45.664 113.918 45.352C113.03 45.016 111.866 45.04 110.426 45.424C110.258 45.448 110.006 45.496 109.67 45.568C109.334 45.64 109.034 45.712 108.77 45.784C108.506 45.832 108.362 45.856 108.338 45.856C108.17 45.904 108.038 45.928 107.942 45.928C107.846 45.928 107.726 46.048 107.582 46.288C107.462 46.504 107.27 46.972 107.006 47.692C106.742 48.388 106.346 49.468 105.818 50.932C105.314 52.396 104.882 53.44 104.522 54.064C104.186 54.664 103.886 54.94 103.622 54.892C103.358 54.82 103.058 54.556 102.722 54.1C102.53 53.764 102.314 53.392 102.074 52.984C101.858 52.576 101.87 52.156 102.11 51.724C102.23 51.508 102.326 51.316 102.398 51.148C102.47 50.956 102.566 50.632 102.686 50.176C102.806 49.816 103.034 49.192 103.37 48.304C103.73 47.392 104.15 46.336 104.63 45.136C105.11 43.912 105.614 42.652 106.142 41.356C106.67 40.06 107.174 38.836 107.654 37.684C108.158 36.532 108.578 35.56 108.914 34.768C109.25 34.024 109.454 33.484 109.526 33.148C109.598 32.812 109.574 32.632 109.454 32.608C109.454 32.488 109.418 32.38 109.346 32.284C109.274 32.164 109.25 32.056 109.274 31.96C109.274 31.864 109.478 31.732 109.886 31.564C110.318 31.396 110.774 31.24 111.254 31.096C111.734 30.952 112.082 30.904 112.298 30.952C112.418 30.952 112.562 30.952 112.73 30.952C112.898 30.928 112.982 30.868 112.982 30.772C113.054 30.772 113.282 30.748 113.666 30.7C114.05 30.652 114.47 30.652 114.926 30.7C116.534 30.844 117.854 31.312 118.886 32.104C119.918 32.872 120.422 34.108 120.398 35.812C120.374 36.22 120.206 36.748 119.894 37.396C119.582 38.044 119.186 38.692 118.706 39.34C118.25 39.988 117.758 40.552 117.23 41.032C116.918 41.296 116.582 41.572 116.222 41.86C115.886 42.124 115.586 42.352 115.322 42.544C115.082 42.712 114.962 42.796 114.962 42.796C114.962 42.796 115.058 42.832 115.25 42.904C115.442 42.976 115.646 43.048 115.862 43.12C116.966 43.528 117.83 44.044 118.454 44.668C119.102 45.292 119.558 46.156 119.822 47.26C119.918 47.62 119.918 48.064 119.822 48.592C119.75 49.12 119.642 49.648 119.498 50.176C119.354 50.68 119.198 51.112 119.03 51.472C118.862 51.64 118.73 51.82 118.634 52.012C118.538 52.18 118.49 52.264 118.49 52.264C118.49 52.312 118.394 52.504 118.202 52.84C118.01 53.152 117.782 53.5 117.518 53.884C117.254 54.268 117.002 54.604 116.762 54.892C116.522 55.084 116.174 55.348 115.718 55.684C115.286 56.044 114.806 56.392 114.278 56.728C113.774 57.064 113.294 57.316 112.838 57.484C112.166 57.772 111.41 57.964 110.57 58.06C109.754 58.18 108.974 58.192 108.23 58.096C107.486 58.024 106.898 57.856 106.466 57.592ZM109.058 42.652C109.058 42.652 109.25 42.616 109.634 42.544C110.042 42.448 110.486 42.352 110.966 42.256C111.446 42.136 111.806 42.028 112.046 41.932C112.166 41.86 112.334 41.764 112.55 41.644C112.79 41.524 113.03 41.344 113.27 41.104C113.606 40.792 113.966 40.444 114.35 40.06C114.734 39.652 115.106 39.22 115.466 38.764C115.85 38.308 116.174 37.816 116.438 37.288C116.99 36.424 117.29 35.8 117.338 35.416C117.386 35.032 117.254 34.684 116.942 34.372C116.726 34.108 116.426 33.916 116.042 33.796C115.658 33.652 115.238 33.58 114.782 33.58C114.35 33.556 113.93 33.604 113.522 33.724C113.21 33.82 112.97 33.94 112.802 34.084C112.634 34.204 112.55 34.396 112.55 34.66C112.55 34.876 112.478 35.104 112.334 35.344C112.214 35.56 112.094 35.728 111.974 35.848C111.95 36.016 111.866 36.184 111.722 36.352C111.602 36.496 111.542 36.568 111.542 36.568C111.542 36.664 111.386 36.964 111.074 37.468C110.786 37.948 110.474 38.644 110.138 39.556C109.706 40.588 109.418 41.332 109.274 41.788C109.13 42.244 109.058 42.532 109.058 42.652ZM130.097 54.928C129.857 54.688 129.665 54.364 129.521 53.956C129.377 53.524 129.233 53.032 129.089 52.48C129.041 52.288 129.017 52.072 129.017 51.832C129.041 51.592 129.041 51.4 129.017 51.256C128.945 51.424 128.825 51.64 128.657 51.904C128.513 52.168 128.369 52.36 128.225 52.48C128.129 52.576 127.913 52.768 127.577 53.056C127.241 53.32 126.905 53.536 126.569 53.704C125.777 54.208 125.069 54.448 124.445 54.424C123.845 54.376 123.317 54.064 122.861 53.488C122.477 53.176 122.165 52.78 121.925 52.3C121.685 51.82 121.637 51.244 121.781 50.572C121.829 49.732 121.949 48.916 122.141 48.124C122.333 47.308 122.729 46.228 123.329 44.884C123.833 43.9 124.217 43.132 124.481 42.58C124.745 42.028 124.913 41.704 124.985 41.608C125.345 41.488 125.789 41.5 126.317 41.644C126.845 41.764 127.133 41.992 127.181 42.328C127.325 42.568 127.325 43.024 127.181 43.696C127.037 44.344 126.749 45.088 126.317 45.928C125.981 46.744 125.657 47.536 125.345 48.304C125.057 49.072 124.877 49.72 124.805 50.248C124.757 50.776 124.901 51.1 125.237 51.22C125.453 51.34 125.765 51.328 126.173 51.184C126.605 51.04 127.109 50.608 127.685 49.888C128.261 49.168 128.873 48.028 129.521 46.468C129.713 45.988 129.857 45.568 129.953 45.208C130.049 44.824 130.109 44.404 130.133 43.948C130.085 43.66 130.157 43.36 130.349 43.048C130.565 42.736 130.817 42.496 131.105 42.328C131.201 42.208 131.333 42.1 131.501 42.004C131.669 41.884 131.777 41.884 131.825 42.004L132.401 41.968C132.497 41.944 132.605 42.04 132.725 42.256C132.845 42.472 132.965 42.628 133.085 42.724C133.349 42.94 133.469 43.408 133.445 44.128C133.421 44.848 133.133 45.856 132.581 47.152C132.125 48.136 131.813 48.88 131.645 49.384C131.501 49.888 131.417 50.38 131.393 50.86C131.393 51.292 131.429 51.664 131.501 51.976C131.573 52.264 131.789 52.564 132.149 52.876C132.413 53.044 132.557 53.332 132.581 53.74C132.629 54.124 132.641 54.46 132.617 54.748C132.569 54.964 132.377 55.108 132.041 55.18C131.729 55.276 131.381 55.3 130.997 55.252C130.637 55.204 130.337 55.096 130.097 54.928ZM134.422 62.488C133.558 62.656 132.73 62.68 131.938 62.56C131.146 62.464 130.486 62.26 129.958 61.948C129.406 61.636 129.07 61.288 128.95 60.904C128.806 60.352 128.878 59.944 129.166 59.68C129.454 59.416 129.802 59.26 130.21 59.212C130.594 59.164 130.846 59.212 130.966 59.356C131.158 59.476 131.458 59.656 131.866 59.896C132.298 60.136 132.826 60.196 133.45 60.076C134.002 59.956 134.494 59.692 134.926 59.284C135.358 58.876 135.742 58.444 136.078 57.988C136.27 57.7 136.594 57.184 137.05 56.44C137.506 55.696 137.974 54.88 138.454 53.992C138.958 53.08 139.378 52.24 139.714 51.472C139.786 51.28 139.87 51.052 139.966 50.788C140.062 50.524 140.182 50.308 140.326 50.14C140.47 49.852 140.59 49.588 140.686 49.348C140.806 49.084 140.878 48.904 140.902 48.808C140.926 48.688 141.034 48.448 141.226 48.088C141.418 47.728 141.598 47.368 141.766 47.008C141.886 46.648 142.066 46.12 142.306 45.424C142.546 44.728 142.786 44.164 143.026 43.732C143.314 43.18 143.542 42.736 143.71 42.4C143.902 42.04 144.106 41.824 144.322 41.752C144.538 41.584 144.742 41.5 144.934 41.5C145.126 41.5 145.354 41.572 145.618 41.716C145.906 42.004 146.134 42.292 146.302 42.58C146.494 42.844 146.566 43.18 146.518 43.588C146.494 43.972 146.302 44.5 145.942 45.172C145.75 45.748 145.534 46.276 145.294 46.756C145.078 47.212 144.91 47.512 144.79 47.656C144.67 47.944 144.526 48.268 144.358 48.628C144.214 48.964 144.082 49.276 143.962 49.564C143.53 50.524 143.158 51.304 142.846 51.904C142.534 52.504 142.258 53.056 142.018 53.56C141.778 54.064 141.526 54.652 141.262 55.324C140.71 56.212 140.17 57.052 139.642 57.844C139.138 58.66 138.598 59.416 138.022 60.112C137.782 60.328 137.434 60.604 136.978 60.94C136.546 61.3 136.09 61.624 135.61 61.912C135.154 62.224 134.758 62.416 134.422 62.488ZM138.922 54.352C138.562 54.304 138.166 54.064 137.734 53.632C137.326 53.2 136.978 52.744 136.69 52.264C136.426 51.784 136.318 51.448 136.366 51.256C136.366 51.136 136.366 51.04 136.366 50.968C136.366 50.896 136.366 50.86 136.366 50.86C136.222 50.86 136.102 50.656 136.006 50.248C135.934 49.816 135.874 49.276 135.826 48.628C135.802 47.98 135.79 47.308 135.79 46.612C135.814 45.916 135.85 45.28 135.898 44.704C135.994 44.296 136.042 43.852 136.042 43.372C136.042 42.868 136.054 42.472 136.078 42.184C136.054 41.8 136.126 41.488 136.294 41.248C136.486 41.008 136.63 40.852 136.726 40.78C137.614 40.396 138.262 40.6 138.67 41.392C139.078 42.184 139.222 43.444 139.102 45.172C139.054 46.132 139.03 47.056 139.03 47.944C139.03 48.808 139.114 49.552 139.282 50.176C139.45 50.8 139.738 51.244 140.146 51.508C140.314 51.604 140.374 51.808 140.326 52.12C140.278 52.432 140.17 52.768 140.002 53.128C139.834 53.464 139.642 53.764 139.426 54.028C139.234 54.268 139.066 54.376 138.922 54.352ZM159.082 54.712C158.554 54.712 158.158 54.688 157.894 54.64C157.654 54.592 157.474 54.52 157.354 54.424C157.234 54.328 157.078 54.196 156.886 54.028C156.79 53.836 156.622 53.596 156.382 53.308C156.142 52.996 155.974 52.792 155.878 52.696C155.782 52.336 155.746 51.844 155.77 51.22C155.818 50.596 155.926 49.924 156.094 49.204C156.262 48.484 156.466 47.836 156.706 47.26C156.802 47.068 156.886 46.876 156.958 46.684C157.03 46.492 157.066 46.396 157.066 46.396C157.066 46.276 157.21 45.988 157.498 45.532C157.81 45.076 158.146 44.596 158.506 44.092C158.89 43.588 159.202 43.228 159.442 43.012C159.61 42.82 159.862 42.616 160.198 42.4C160.558 42.184 160.87 42.028 161.134 41.932C161.398 41.836 161.758 41.716 162.214 41.572C162.67 41.404 163.078 41.32 163.438 41.32C163.774 41.32 164.134 41.392 164.518 41.536C164.902 41.68 165.226 41.932 165.49 42.292C165.922 42.724 166.198 43.24 166.318 43.84C166.438 44.44 166.45 44.956 166.354 45.388C166.234 45.868 165.994 46.264 165.634 46.576C165.274 46.864 164.89 47.02 164.482 47.044C164.074 47.044 163.714 46.876 163.402 46.54C163.306 46.348 163.258 46.192 163.258 46.072C163.258 45.928 163.306 45.724 163.402 45.46C163.498 45.124 163.546 44.824 163.546 44.56C163.546 44.296 163.438 44.164 163.222 44.164C162.91 44.164 162.658 44.26 162.466 44.452C162.274 44.62 161.986 44.908 161.602 45.316C161.434 45.508 161.218 45.784 160.954 46.144C160.69 46.504 160.426 46.9 160.162 47.332C159.922 47.74 159.706 48.16 159.514 48.592C159.25 49.384 159.082 49.9 159.01 50.14C158.962 50.356 158.938 50.464 158.938 50.464C158.938 50.56 158.926 50.656 158.902 50.752C158.878 50.824 158.866 50.908 158.866 51.004C158.866 51.292 159.034 51.52 159.37 51.688C159.634 51.856 159.85 51.94 160.018 51.94C160.21 51.916 160.57 51.784 161.098 51.544C161.482 51.352 161.842 51.1 162.178 50.788C162.538 50.476 162.91 50.2 163.294 49.96C163.558 49.792 163.762 49.648 163.906 49.528C164.074 49.408 164.158 49.396 164.158 49.492C164.158 49.588 164.194 49.636 164.266 49.636C164.338 49.636 164.422 49.588 164.518 49.492C164.662 49.3 164.842 49.228 165.058 49.276C165.274 49.3 165.466 49.36 165.634 49.456C165.826 49.552 165.922 49.636 165.922 49.708C165.874 49.924 165.922 50.104 166.066 50.248C166.066 50.344 166.03 50.476 165.958 50.644C165.91 50.788 165.838 50.908 165.742 51.004C165.622 51.172 165.442 51.412 165.202 51.724C164.986 52.036 164.782 52.312 164.59 52.552C164.398 52.792 164.302 52.912 164.302 52.912C164.206 52.888 164.11 52.912 164.014 52.984C163.942 53.056 163.858 53.14 163.762 53.236C163.57 53.404 163.39 53.536 163.222 53.632C163.054 53.704 162.922 53.74 162.826 53.74C162.658 53.836 162.526 53.896 162.43 53.92C162.358 53.944 162.322 54.004 162.322 54.1C162.082 54.34 161.65 54.508 161.026 54.604C160.402 54.676 159.754 54.712 159.082 54.712ZM172.307 54.712C171.803 54.808 171.419 54.784 171.155 54.64C170.915 54.472 170.663 54.268 170.399 54.028C170.015 53.836 169.667 53.572 169.355 53.236C169.043 52.876 168.803 52.504 168.635 52.12C168.467 51.736 168.395 51.436 168.419 51.22C168.491 50.38 168.683 49.468 168.995 48.484C169.331 47.5 169.751 46.54 170.255 45.604C170.783 44.668 171.371 43.84 172.019 43.12C172.691 42.376 173.411 41.836 174.179 41.5C174.659 41.308 175.175 41.236 175.727 41.284C176.279 41.332 176.651 41.56 176.843 41.968C177.203 42.664 177.119 43.108 176.591 43.3C176.519 43.3 176.435 43.336 176.339 43.408C176.243 43.456 176.195 43.528 176.195 43.624C176.291 43.672 176.555 43.684 176.987 43.66C177.419 43.612 177.851 43.54 178.283 43.444C178.739 43.324 179.039 43.204 179.183 43.084C179.327 43.012 179.435 42.976 179.507 42.976C179.579 42.976 179.759 43 180.047 43.048C180.455 43.168 180.659 43.312 180.659 43.48C180.659 43.576 180.695 43.732 180.767 43.948C180.839 44.14 180.923 44.236 181.019 44.236C181.187 44.26 181.223 44.428 181.127 44.74C181.055 45.052 180.779 45.376 180.299 45.712C179.843 46 179.555 46.192 179.435 46.288C179.339 46.36 179.327 46.528 179.399 46.792C179.591 47.248 179.579 47.8 179.363 48.448C179.147 49.096 178.787 49.768 178.283 50.464C177.779 51.16 177.179 51.82 176.483 52.444C175.811 53.044 175.103 53.56 174.359 53.992C173.639 54.4 172.955 54.64 172.307 54.712ZM172.415 51.688C172.511 51.688 172.679 51.64 172.919 51.544C173.159 51.424 173.351 51.328 173.495 51.256C173.591 51.16 173.711 51.052 173.855 50.932C174.023 50.788 174.155 50.704 174.251 50.68C174.347 50.68 174.407 50.644 174.431 50.572C174.455 50.476 174.539 50.296 174.683 50.032C174.827 49.744 175.115 49.324 175.547 48.772C176.027 48.244 176.339 47.824 176.483 47.512C176.627 47.176 176.639 46.816 176.519 46.432C176.495 46.336 176.423 46.276 176.303 46.252C176.207 46.228 176.075 46.168 175.907 46.072C175.667 46.072 175.499 46.132 175.403 46.252C175.331 46.348 175.163 46.288 174.899 46.072L174.323 45.352L173.711 45.964C173.327 46.348 172.979 46.828 172.667 47.404C172.379 47.98 172.151 48.568 171.983 49.168C171.815 49.768 171.707 50.296 171.659 50.752C171.635 51.112 171.695 51.352 171.839 51.472C171.983 51.592 172.175 51.664 172.415 51.688ZM190.75 59.248C190.606 59.344 190.27 59.272 189.742 59.032C189.238 58.816 188.818 58.516 188.482 58.132C188.314 57.94 188.206 57.736 188.158 57.52C188.11 57.304 188.122 56.896 188.194 56.296C188.29 56.032 188.338 55.744 188.338 55.432C188.362 55.144 188.374 54.952 188.374 54.856C188.374 54.712 188.41 54.376 188.482 53.848C188.578 53.32 188.674 52.768 188.77 52.192C188.866 51.592 188.95 51.136 189.022 50.824C189.022 50.8 189.034 50.74 189.058 50.644C189.082 50.548 189.106 50.464 189.13 50.392C189.178 50.176 189.238 49.888 189.31 49.528C189.406 49.168 189.49 48.724 189.562 48.196C189.682 47.74 189.802 47.38 189.922 47.116C190.042 46.828 190.126 46.528 190.174 46.216C189.886 46.216 189.514 46.24 189.058 46.288C188.626 46.336 188.182 46.408 187.726 46.504C187.27 46.576 186.874 46.648 186.538 46.72C186.226 46.768 186.046 46.816 185.998 46.864C185.902 46.912 185.794 47.08 185.674 47.368C185.578 47.632 185.47 47.992 185.35 48.448C185.23 48.88 185.122 49.384 185.026 49.96C184.738 51.064 184.582 52.204 184.558 53.38C184.534 54.532 184.594 55.384 184.738 55.936C184.882 56.512 184.81 57.028 184.522 57.484C184.258 57.964 183.982 58.264 183.694 58.384C183.238 58.408 182.782 58.012 182.326 57.196C181.87 56.38 181.642 55.384 181.642 54.208C181.546 53.224 181.63 51.976 181.894 50.464C182.158 48.928 182.554 47.212 183.082 45.316C183.274 44.668 183.538 43.9 183.874 43.012C184.21 42.124 184.558 41.248 184.918 40.384C185.302 39.52 185.638 38.8 185.926 38.224C186.214 37.624 186.394 37.288 186.466 37.216C186.61 37.264 186.682 37.156 186.682 36.892C186.682 36.844 186.778 36.664 186.97 36.352C187.162 36.04 187.342 35.704 187.51 35.344C187.822 34.888 188.218 34.42 188.698 33.94C189.202 33.46 189.706 33.028 190.21 32.644C190.738 32.236 191.194 31.96 191.578 31.816C191.938 31.672 192.298 31.6 192.658 31.6C193.258 31.6 193.834 31.792 194.386 32.176C194.938 32.56 195.334 33.064 195.574 33.688C195.982 33.208 196.462 32.788 197.014 32.428C197.566 32.044 197.998 31.732 198.31 31.492C198.838 31.228 199.27 31.048 199.606 30.952C199.942 30.856 200.362 30.808 200.866 30.808C201.322 30.808 201.754 30.952 202.162 31.24C202.594 31.528 202.966 31.816 203.278 32.104C203.614 32.464 203.806 32.704 203.854 32.824C203.902 32.944 203.926 33.172 203.926 33.508C203.878 33.748 203.734 34.096 203.494 34.552C203.254 34.984 202.966 35.44 202.63 35.92C202.318 36.4 202.018 36.82 201.73 37.18C201.466 37.516 201.286 37.684 201.19 37.684C200.638 37.852 200.362 37.564 200.362 36.82C200.362 36.652 200.266 36.496 200.074 36.352C199.906 36.184 199.822 36.1 199.822 36.1C199.822 36.028 199.834 35.896 199.858 35.704C199.906 35.488 199.978 35.296 200.074 35.128C200.194 34.888 200.218 34.648 200.146 34.408C200.098 34.168 199.942 34.084 199.678 34.156C199.606 34.204 199.462 34.312 199.246 34.48C199.054 34.624 198.838 34.792 198.598 34.984C198.382 35.152 198.19 35.332 198.022 35.524C197.854 35.692 197.77 35.812 197.77 35.884C197.77 35.884 197.722 35.992 197.626 36.208C197.53 36.4 197.35 36.652 197.086 36.964C196.918 37.204 196.762 37.444 196.618 37.684C196.498 37.9 196.438 38.032 196.438 38.08C196.438 38.176 196.426 38.284 196.402 38.404C196.402 38.5 196.342 38.548 196.222 38.548C196.222 38.548 196.186 38.656 196.114 38.872C196.042 39.088 195.91 39.364 195.718 39.7C195.622 39.94 195.502 40.192 195.358 40.456C195.214 40.696 195.094 40.864 194.998 40.96H195.034C195.034 40.96 194.974 41.092 194.854 41.356C194.758 41.62 194.65 41.896 194.53 42.184C194.41 42.448 194.35 42.604 194.35 42.652C194.35 42.748 194.494 42.796 194.782 42.796C195.094 42.796 195.454 42.76 195.862 42.688C196.294 42.592 196.702 42.496 197.086 42.4C197.422 42.304 197.65 42.256 197.77 42.256C197.89 42.256 198.13 42.304 198.49 42.4C198.682 42.52 198.838 42.76 198.958 43.12C199.102 43.456 199.198 43.792 199.246 44.128C199.318 44.44 199.318 44.644 199.246 44.74C199.222 44.836 198.958 44.968 198.454 45.136C197.95 45.304 197.446 45.436 196.942 45.532C196.51 45.628 196.03 45.736 195.502 45.856C194.974 45.976 194.506 46.084 194.098 46.18C193.714 46.276 193.522 46.36 193.522 46.432C193.426 46.432 193.342 46.492 193.27 46.612C193.198 46.708 193.162 46.792 193.162 46.864C193.162 47.2 193.114 47.452 193.018 47.62C192.97 47.764 192.886 48.028 192.766 48.412C192.646 48.796 192.514 49.228 192.37 49.708C192.25 50.164 192.142 50.584 192.046 50.968C191.974 51.352 191.938 51.616 191.938 51.76C191.794 51.928 191.71 52.144 191.686 52.408C191.662 52.648 191.65 52.864 191.65 53.056C191.554 53.248 191.494 53.428 191.47 53.596C191.446 53.74 191.434 53.86 191.434 53.956C191.434 53.98 191.434 54.028 191.434 54.1C191.434 54.172 191.422 54.244 191.398 54.316C191.374 54.556 191.338 54.868 191.29 55.252C191.266 55.66 191.254 56.056 191.254 56.44L191.146 57.484C191.122 57.796 191.074 58.132 191.002 58.492C190.954 58.876 190.87 59.128 190.75 59.248ZM187.546 43.84C187.642 43.84 187.858 43.816 188.194 43.768C188.554 43.696 188.986 43.612 189.49 43.516C189.994 43.42 190.522 43.336 191.074 43.264L191.29 42.868C191.65 41.86 191.95 41.056 192.19 40.456C192.43 39.832 192.67 39.268 192.91 38.764L192.982 38.44C192.982 38.392 193.03 38.248 193.126 38.008C193.246 37.768 193.306 37.528 193.306 37.288C193.474 36.472 193.606 35.896 193.702 35.56C193.798 35.2 193.798 34.972 193.702 34.876C193.606 34.78 193.342 34.732 192.91 34.732C192.79 34.708 192.598 34.744 192.334 34.84C192.094 34.936 191.866 35.056 191.65 35.2C191.458 35.32 191.362 35.44 191.362 35.56V35.704C191.29 35.68 191.11 35.824 190.822 36.136C190.558 36.448 190.246 36.844 189.886 37.324C189.55 37.804 189.238 38.284 188.95 38.764C188.758 39.172 188.53 39.7 188.266 40.348C188.002 40.996 187.666 41.848 187.258 42.904L186.97 43.768L187.546 43.84ZM202.342 54.676C201.406 54.292 200.758 53.668 200.398 52.804C200.038 51.94 199.942 50.788 200.11 49.348C200.158 48.604 200.134 48.112 200.038 47.872C199.942 47.608 199.762 47.356 199.498 47.116C199.426 47.02 199.258 46.864 198.994 46.648C198.73 46.408 198.61 46.228 198.634 46.108C198.61 45.94 198.646 45.736 198.742 45.496C198.838 45.232 198.922 45.088 198.994 45.064C199.162 44.992 199.33 44.908 199.498 44.812C199.69 44.716 199.834 44.692 199.93 44.74C200.026 44.74 200.17 44.8 200.362 44.92C200.578 45.04 200.686 45.148 200.686 45.244C200.782 45.412 200.926 45.34 201.118 45.028C201.334 44.716 201.562 44.32 201.802 43.84C202.042 43.456 202.342 43.096 202.702 42.76C203.062 42.424 203.422 42.124 203.782 41.86C204.166 41.572 204.49 41.356 204.754 41.212C204.874 41.164 205.102 41.092 205.438 40.996C205.798 40.9 206.17 40.828 206.554 40.78C206.938 40.708 207.226 40.684 207.418 40.708C207.85 40.732 208.306 40.912 208.786 41.248C209.266 41.584 209.638 41.896 209.902 42.184C210.214 42.4 210.418 42.736 210.514 43.192C210.634 43.624 210.682 44.08 210.658 44.56C210.634 45.04 210.538 45.448 210.37 45.784C210.298 46.024 210.046 46.36 209.614 46.792C209.182 47.224 208.702 47.644 208.174 48.052C207.67 48.436 207.238 48.7 206.878 48.844C206.566 48.916 206.194 48.976 205.762 49.024C205.33 49.048 204.922 49.048 204.538 49.024C204.178 48.976 203.926 48.916 203.782 48.844C203.614 48.748 203.47 48.784 203.35 48.952C203.254 49.096 203.17 49.504 203.098 50.176C203.074 50.44 203.074 50.668 203.098 50.86C203.146 51.052 203.194 51.196 203.242 51.292C203.41 51.58 203.578 51.796 203.746 51.94C203.914 52.06 204.226 52.096 204.682 52.048C205.138 52 205.594 51.724 206.05 51.22C206.53 50.692 206.962 50.272 207.346 49.96C207.442 49.792 207.646 49.684 207.958 49.636C208.294 49.564 208.69 49.588 209.146 49.708C209.41 49.876 209.53 50.14 209.506 50.5C209.506 50.86 209.314 51.388 208.93 52.084C208.858 52.252 208.654 52.504 208.318 52.84C208.006 53.152 207.658 53.476 207.274 53.812C206.914 54.124 206.614 54.352 206.374 54.496C205.654 54.88 204.946 55.06 204.25 55.036C203.554 55.012 202.918 54.892 202.342 54.676ZM205.006 46.576C205.366 46.48 205.666 46.384 205.906 46.288C206.17 46.192 206.422 46.036 206.662 45.82C206.902 45.604 207.178 45.28 207.49 44.848C207.586 44.584 207.634 44.356 207.634 44.164C207.658 43.972 207.646 43.852 207.598 43.804C207.406 43.612 207.19 43.552 206.95 43.624C206.734 43.672 206.494 43.792 206.23 43.984C206.062 44.056 205.822 44.212 205.51 44.452C205.222 44.668 204.934 44.92 204.646 45.208C204.382 45.472 204.166 45.724 203.998 45.964C203.854 46.18 203.83 46.312 203.926 46.36C203.878 46.456 204.01 46.516 204.322 46.54C204.658 46.564 204.886 46.576 205.006 46.576ZM218.901 54.28C218.181 54.688 217.413 54.928 216.597 55C215.805 55.048 215.061 54.94 214.365 54.676C213.669 54.388 213.105 53.968 212.673 53.416C212.433 53.104 212.205 52.612 211.989 51.94C211.773 51.244 211.737 50.308 211.881 49.132C212.025 48.028 212.361 46.912 212.889 45.784C213.441 44.656 214.113 43.66 214.905 42.796C215.697 41.932 216.561 41.344 217.497 41.032C217.833 40.912 218.169 40.828 218.505 40.78C218.865 40.708 219.333 40.696 219.909 40.744C220.461 40.816 220.953 40.96 221.385 41.176C221.817 41.368 222.129 41.584 222.321 41.824C222.705 42.208 222.957 42.58 223.077 42.94C223.197 43.3 223.245 43.648 223.221 43.984C223.101 44.752 222.753 45.58 222.177 46.468C221.625 47.356 220.845 48.016 219.837 48.448C219.429 48.616 218.949 48.724 218.397 48.772C217.845 48.82 217.089 48.748 216.129 48.556C215.553 48.436 215.169 48.496 214.977 48.736C214.809 48.976 214.737 49.444 214.761 50.14C214.809 50.572 214.905 50.956 215.049 51.292C215.217 51.604 215.517 51.82 215.949 51.94C216.501 52.036 216.897 52.048 217.137 51.976C217.377 51.88 217.677 51.748 218.037 51.58C218.229 51.46 218.409 51.328 218.577 51.184C218.769 51.04 218.949 50.896 219.117 50.752C219.309 50.608 219.465 50.5 219.585 50.428C219.705 50.332 219.825 50.272 219.945 50.248C220.065 50.224 220.185 50.212 220.305 50.212C220.569 50.236 220.821 50.38 221.061 50.644C221.301 50.908 221.457 51.16 221.529 51.4C221.529 51.592 221.409 51.868 221.169 52.228C220.929 52.564 220.605 52.924 220.197 53.308C219.813 53.668 219.381 53.992 218.901 54.28ZM218.433 46.252C218.601 46.18 218.841 46.012 219.153 45.748C219.489 45.484 219.789 45.208 220.053 44.92C220.317 44.608 220.449 44.368 220.449 44.2C220.449 43.936 220.269 43.708 219.909 43.516C219.573 43.324 219.129 43.288 218.577 43.408C218.385 43.456 218.157 43.588 217.893 43.804C217.629 44.02 217.365 44.272 217.101 44.56C216.837 44.824 216.609 45.088 216.417 45.352C216.225 45.592 216.093 45.784 216.021 45.928C216.117 46.048 216.309 46.144 216.597 46.216C216.885 46.288 217.197 46.324 217.533 46.324C217.893 46.324 218.193 46.3 218.433 46.252ZM234.747 59.14C234.363 59.14 234.063 58.972 233.847 58.636C233.631 58.3 233.523 58.084 233.523 57.988C233.547 57.82 233.583 57.664 233.631 57.52C233.679 57.4 233.715 57.28 233.739 57.16C233.787 56.92 233.811 56.632 233.811 56.296C233.811 55.984 233.847 55.384 233.919 54.496C233.991 53.536 234.051 52.744 234.099 52.12C234.171 51.496 234.243 50.944 234.315 50.464C234.387 49.984 234.471 49.504 234.567 49.024C234.663 48.52 234.795 47.908 234.963 47.188C235.083 46.372 235.083 45.868 234.963 45.676C234.867 45.484 234.687 45.376 234.423 45.352C233.967 45.304 233.571 45.184 233.235 44.992C232.899 44.776 232.683 44.524 232.587 44.236C232.347 43.996 232.287 43.78 232.407 43.588C232.551 43.396 232.815 43.24 233.199 43.12C233.583 42.976 233.991 42.916 234.423 42.94C234.831 42.916 235.143 42.892 235.359 42.868C235.599 42.82 235.791 42.7 235.935 42.508C236.079 42.292 236.223 41.932 236.367 41.428C236.415 41.212 236.499 40.936 236.619 40.6C236.763 40.264 236.895 39.964 237.015 39.7C237.135 39.436 237.195 39.304 237.195 39.304C237.411 39.136 237.519 38.92 237.519 38.656C237.543 38.32 237.699 37.876 237.987 37.324C238.299 36.748 238.791 35.944 239.463 34.912C240.279 33.856 241.083 32.992 241.875 32.32C242.691 31.624 243.543 31.204 244.431 31.06C244.527 31.012 244.743 30.988 245.079 30.988C245.415 30.988 245.643 30.988 245.763 30.988C246.267 31.012 246.699 31.156 247.059 31.42C247.443 31.66 247.743 31.984 247.959 32.392C248.151 32.704 248.187 33.16 248.067 33.76C247.971 34.336 247.827 34.768 247.635 35.056C247.515 35.248 247.275 35.512 246.915 35.848C246.579 36.184 246.243 36.484 245.907 36.748C245.571 37.012 245.355 37.144 245.259 37.144C245.139 37.144 244.959 37.048 244.719 36.856C244.479 36.664 244.335 36.532 244.287 36.46C244.191 36.172 244.215 35.908 244.359 35.668C244.527 35.404 244.695 35.152 244.863 34.912C245.103 34.552 245.235 34.312 245.259 34.192C245.283 34.072 245.259 33.976 245.187 33.904C245.115 33.808 245.043 33.64 244.971 33.4L245.295 33.724C245.127 33.628 244.983 33.592 244.863 33.616C244.743 33.64 244.551 33.7 244.287 33.796C243.831 34.036 243.543 34.228 243.423 34.372C243.327 34.492 243.183 34.648 242.991 34.84C242.415 35.344 241.995 35.944 241.731 36.64C241.467 37.312 241.179 37.96 240.867 38.584C240.771 38.776 240.603 39.136 240.363 39.664C240.147 40.168 239.943 40.648 239.751 41.104C239.583 41.536 239.427 41.872 239.283 42.112C239.139 42.328 239.067 42.472 239.067 42.544C238.995 42.712 239.031 42.796 239.175 42.796C239.343 42.796 239.667 42.784 240.147 42.76C241.323 42.616 242.139 42.628 242.595 42.796C243.075 42.94 243.363 43.204 243.459 43.588C243.867 44.164 243.759 44.584 243.135 44.848C242.535 45.088 241.551 45.304 240.183 45.496C239.799 45.52 239.499 45.544 239.283 45.568C239.067 45.568 238.899 45.58 238.779 45.604C238.683 45.628 238.587 45.664 238.491 45.712C238.395 45.76 238.287 46 238.167 46.432C238.143 46.696 238.095 46.96 238.023 47.224C237.975 47.464 237.939 47.752 237.915 48.088C237.819 48.376 237.747 48.676 237.699 48.988C237.675 49.3 237.603 49.576 237.483 49.816C237.339 51.136 237.231 52.384 237.159 53.56C237.087 54.712 236.991 55.708 236.871 56.548C236.775 57.388 236.571 58.024 236.259 58.456C236.091 58.648 235.827 58.84 235.467 59.032C235.131 59.224 234.891 59.26 234.747 59.14ZM246.908 54.712C246.404 54.808 246.02 54.784 245.756 54.64C245.516 54.472 245.264 54.268 245 54.028C244.616 53.836 244.268 53.572 243.956 53.236C243.644 52.876 243.404 52.504 243.236 52.12C243.068 51.736 242.996 51.436 243.02 51.22C243.092 50.38 243.284 49.468 243.596 48.484C243.932 47.5 244.352 46.54 244.856 45.604C245.384 44.668 245.972 43.84 246.62 43.12C247.292 42.376 248.012 41.836 248.78 41.5C249.26 41.308 249.776 41.236 250.328 41.284C250.88 41.332 251.252 41.56 251.444 41.968C251.804 42.664 251.72 43.108 251.192 43.3C251.12 43.3 251.036 43.336 250.94 43.408C250.844 43.456 250.796 43.528 250.796 43.624C250.892 43.672 251.156 43.684 251.588 43.66C252.02 43.612 252.452 43.54 252.884 43.444C253.34 43.324 253.64 43.204 253.784 43.084C253.928 43.012 254.036 42.976 254.108 42.976C254.18 42.976 254.36 43 254.648 43.048C255.056 43.168 255.26 43.312 255.26 43.48C255.26 43.576 255.296 43.732 255.368 43.948C255.44 44.14 255.524 44.236 255.62 44.236C255.788 44.26 255.824 44.428 255.728 44.74C255.656 45.052 255.38 45.376 254.9 45.712C254.444 46 254.156 46.192 254.036 46.288C253.94 46.36 253.928 46.528 254 46.792C254.192 47.248 254.18 47.8 253.964 48.448C253.748 49.096 253.388 49.768 252.884 50.464C252.38 51.16 251.78 51.82 251.084 52.444C250.412 53.044 249.704 53.56 248.96 53.992C248.24 54.4 247.556 54.64 246.908 54.712ZM247.016 51.688C247.112 51.688 247.28 51.64 247.52 51.544C247.76 51.424 247.952 51.328 248.096 51.256C248.192 51.16 248.312 51.052 248.456 50.932C248.624 50.788 248.756 50.704 248.852 50.68C248.948 50.68 249.008 50.644 249.032 50.572C249.056 50.476 249.14 50.296 249.284 50.032C249.428 49.744 249.716 49.324 250.148 48.772C250.628 48.244 250.94 47.824 251.084 47.512C251.228 47.176 251.24 46.816 251.12 46.432C251.096 46.336 251.024 46.276 250.904 46.252C250.808 46.228 250.676 46.168 250.508 46.072C250.268 46.072 250.1 46.132 250.004 46.252C249.932 46.348 249.764 46.288 249.5 46.072L248.924 45.352L248.312 45.964C247.928 46.348 247.58 46.828 247.268 47.404C246.98 47.98 246.752 48.568 246.584 49.168C246.416 49.768 246.308 50.296 246.26 50.752C246.236 51.112 246.296 51.352 246.44 51.472C246.584 51.592 246.776 51.664 247.016 51.688ZM257.215 54.028C256.999 53.86 256.759 53.644 256.495 53.38C256.255 53.116 256.171 52.744 256.243 52.264C256.315 51.592 256.411 51.004 256.531 50.5C256.651 49.972 256.795 49.372 256.963 48.7C257.011 48.412 257.131 47.92 257.323 47.224C257.539 46.528 257.791 45.772 258.079 44.956C258.367 44.14 258.667 43.372 258.979 42.652C259.291 41.908 259.567 41.356 259.807 40.996C260.071 40.756 260.455 40.636 260.959 40.636C261.487 40.636 261.847 40.732 262.039 40.924C262.303 41.14 262.387 41.524 262.291 42.076C262.195 42.604 261.859 43.432 261.283 44.56C261.163 44.848 261.007 45.16 260.815 45.496C260.647 45.808 260.527 46.072 260.455 46.288C260.383 46.48 260.407 46.564 260.527 46.54C260.671 46.276 260.935 45.976 261.319 45.64C261.703 45.28 262.111 44.932 262.543 44.596C262.975 44.26 263.383 43.96 263.767 43.696C264.151 43.432 264.415 43.264 264.559 43.192C264.751 43.072 264.967 42.976 265.207 42.904C265.471 42.808 265.651 42.736 265.747 42.688C266.299 42.424 266.899 42.328 267.547 42.4C268.219 42.448 268.627 42.652 268.771 43.012C268.795 43.204 268.867 43.348 268.987 43.444C269.131 43.54 269.203 43.588 269.203 43.588C269.299 43.588 269.347 43.624 269.347 43.696C269.371 43.768 269.383 43.804 269.383 43.804C269.383 43.972 269.215 44.212 268.879 44.524C268.567 44.836 268.219 45.004 267.835 45.028C267.523 45.052 267.247 45.112 267.007 45.208C266.767 45.304 266.479 45.424 266.143 45.568C265.231 46.096 264.403 46.564 263.659 46.972C262.939 47.38 262.195 48.004 261.427 48.844C261.259 49.036 261.079 49.216 260.887 49.384C260.695 49.552 260.503 49.792 260.311 50.104C260.191 50.224 260.071 50.488 259.951 50.896C259.831 51.304 259.723 51.7 259.627 52.084C259.555 52.444 259.519 52.66 259.519 52.732C259.519 52.732 259.483 52.852 259.411 53.092C259.339 53.308 259.219 53.524 259.051 53.74C258.763 54.124 258.475 54.364 258.187 54.46C257.923 54.556 257.599 54.412 257.215 54.028ZM279.23 53.668C279.158 53.572 279.002 53.452 278.762 53.308C278.522 53.164 278.402 53.044 278.402 52.948C278.402 52.9 278.39 52.84 278.366 52.768C278.366 52.696 278.318 52.66 278.222 52.66C278.15 52.588 278.186 52.324 278.33 51.868C278.498 51.412 278.714 50.872 278.978 50.248C279.266 49.624 279.566 49.024 279.878 48.448C280.19 47.848 280.454 47.368 280.67 47.008C280.79 46.936 280.862 46.84 280.886 46.72C280.934 46.576 280.934 46.504 280.886 46.504C280.886 46.504 280.946 46.396 281.066 46.18C281.21 45.94 281.318 45.784 281.39 45.712C281.582 45.376 281.726 45.04 281.822 44.704C281.918 44.344 281.942 44.044 281.894 43.804C281.798 43.684 281.69 43.648 281.57 43.696C281.45 43.744 281.39 43.768 281.39 43.768C281.294 43.792 281.15 43.84 280.958 43.912C280.79 43.96 280.634 44.032 280.49 44.128C279.938 44.512 279.53 44.704 279.266 44.704C279.026 44.704 278.786 44.416 278.546 43.84C278.45 43.576 278.414 43.324 278.438 43.084C278.462 42.844 278.558 42.652 278.726 42.508C278.918 42.34 279.158 42.172 279.446 42.004C279.734 41.812 279.926 41.68 280.022 41.608C280.286 41.44 280.658 41.26 281.138 41.068C281.618 40.876 281.906 40.768 282.002 40.744C282.626 40.552 283.154 40.552 283.586 40.744C284.018 40.912 284.342 41.248 284.558 41.752C284.894 42.16 285.062 42.592 285.062 43.048C285.062 43.504 284.894 44.068 284.558 44.74L284.198 45.28C284.078 45.52 284.054 45.64 284.126 45.64C284.222 45.64 284.33 45.556 284.45 45.388C284.522 45.292 284.666 45.148 284.882 44.956C285.098 44.764 285.242 44.668 285.314 44.668C285.314 44.668 285.338 44.656 285.386 44.632C285.458 44.608 285.494 44.512 285.494 44.344C285.566 44.272 285.638 44.2 285.71 44.128C285.806 44.056 285.854 44.02 285.854 44.02C285.95 44.02 286.07 43.972 286.214 43.876C286.382 43.756 286.658 43.54 287.042 43.228C287.306 43.036 287.546 42.94 287.762 42.94C288.314 42.772 288.758 42.952 289.094 43.48C289.454 44.008 289.634 44.692 289.634 45.532L288.878 47.476L290.174 45.892C290.318 45.7 290.462 45.532 290.606 45.388C290.774 45.244 290.918 45.124 291.038 45.028C291.086 44.86 291.158 44.764 291.254 44.74C291.35 44.716 291.398 44.704 291.398 44.704C291.398 44.704 291.422 44.704 291.47 44.704C291.518 44.68 291.542 44.632 291.542 44.56C291.662 44.464 291.794 44.38 291.938 44.308C292.082 44.212 292.178 44.116 292.226 44.02C292.634 43.852 293.126 43.828 293.702 43.948C294.278 44.044 294.686 44.344 294.926 44.848C295.094 45.136 295.25 45.388 295.394 45.604C295.538 45.82 295.61 46.144 295.61 46.576C295.562 46.936 295.514 47.188 295.466 47.332C295.442 47.476 295.418 47.632 295.394 47.8C295.37 47.944 295.334 48.208 295.286 48.592C295.19 48.784 295.13 48.988 295.106 49.204C295.106 49.42 295.106 49.624 295.106 49.816C295.106 50.128 295.118 50.344 295.142 50.464C295.166 50.56 295.262 50.608 295.43 50.608C295.766 50.536 296.042 50.428 296.258 50.284C296.498 50.116 296.762 49.9 297.05 49.636C297.41 49.3 297.722 49.252 297.986 49.492C298.274 49.708 298.454 49.96 298.526 50.248C298.574 50.344 298.526 50.56 298.382 50.896C298.238 51.232 298.07 51.556 297.878 51.868C297.686 52.18 297.53 52.336 297.41 52.336C297.338 52.336 297.194 52.432 296.978 52.624C296.762 52.816 296.594 52.948 296.474 53.02C296.306 53.188 296.138 53.344 295.97 53.488C295.826 53.632 295.658 53.704 295.466 53.704C295.37 53.704 295.25 53.74 295.106 53.812C294.986 53.86 294.842 53.884 294.674 53.884C294.434 53.956 294.062 53.92 293.558 53.776C293.078 53.632 292.766 53.296 292.622 52.768C292.526 52.504 292.382 52.168 292.19 51.76C292.022 51.352 291.986 50.848 292.082 50.248C292.178 49.816 292.238 49.42 292.262 49.06C292.286 48.7 292.334 48.448 292.406 48.304C292.406 48.232 292.406 48.064 292.406 47.8C292.406 47.512 292.37 47.368 292.298 47.368C292.202 47.368 292.022 47.488 291.758 47.728C291.494 47.968 291.182 48.292 290.822 48.7C290.462 49.084 290.09 49.504 289.706 49.96C289.346 50.416 289.022 50.872 288.734 51.328C288.518 51.592 288.326 51.916 288.158 52.3C287.99 52.684 287.87 52.9 287.798 52.948C287.63 53.14 287.342 53.164 286.934 53.02C286.55 52.876 286.262 52.648 286.07 52.336C285.998 52.192 285.914 52.108 285.818 52.084C285.722 52.036 285.638 51.964 285.566 51.868C285.518 51.748 285.518 51.52 285.566 51.184C285.638 50.848 285.794 50.308 286.034 49.564C286.298 48.748 286.526 48.016 286.718 47.368C286.934 46.696 287.042 46.36 287.042 46.36C287.042 46.264 286.862 46.36 286.502 46.648C286.142 46.912 285.722 47.248 285.242 47.656C285.026 47.92 284.738 48.256 284.378 48.664C284.042 49.072 283.646 49.552 283.19 50.104C282.758 50.656 282.266 51.304 281.714 52.048C281.018 53.032 280.49 53.632 280.13 53.848C279.794 54.064 279.494 54.004 279.23 53.668ZM302.677 54.676C301.741 54.292 301.093 53.668 300.733 52.804C300.373 51.94 300.277 50.788 300.445 49.348C300.493 48.604 300.469 48.112 300.373 47.872C300.277 47.608 300.097 47.356 299.833 47.116C299.761 47.02 299.593 46.864 299.329 46.648C299.065 46.408 298.945 46.228 298.969 46.108C298.945 45.94 298.981 45.736 299.077 45.496C299.173 45.232 299.257 45.088 299.329 45.064C299.497 44.992 299.665 44.908 299.833 44.812C300.025 44.716 300.169 44.692 300.265 44.74C300.361 44.74 300.505 44.8 300.697 44.92C300.913 45.04 301.021 45.148 301.021 45.244C301.117 45.412 301.261 45.34 301.453 45.028C301.669 44.716 301.897 44.32 302.137 43.84C302.377 43.456 302.677 43.096 303.037 42.76C303.397 42.424 303.757 42.124 304.117 41.86C304.501 41.572 304.825 41.356 305.089 41.212C305.209 41.164 305.437 41.092 305.773 40.996C306.133 40.9 306.505 40.828 306.889 40.78C307.273 40.708 307.561 40.684 307.753 40.708C308.185 40.732 308.641 40.912 309.121 41.248C309.601 41.584 309.973 41.896 310.237 42.184C310.549 42.4 310.753 42.736 310.849 43.192C310.969 43.624 311.017 44.08 310.993 44.56C310.969 45.04 310.873 45.448 310.705 45.784C310.633 46.024 310.381 46.36 309.949 46.792C309.517 47.224 309.037 47.644 308.509 48.052C308.005 48.436 307.573 48.7 307.213 48.844C306.901 48.916 306.529 48.976 306.097 49.024C305.665 49.048 305.257 49.048 304.873 49.024C304.513 48.976 304.261 48.916 304.117 48.844C303.949 48.748 303.805 48.784 303.685 48.952C303.589 49.096 303.505 49.504 303.433 50.176C303.409 50.44 303.409 50.668 303.433 50.86C303.481 51.052 303.529 51.196 303.577 51.292C303.745 51.58 303.913 51.796 304.081 51.94C304.249 52.06 304.561 52.096 305.017 52.048C305.473 52 305.929 51.724 306.385 51.22C306.865 50.692 307.297 50.272 307.681 49.96C307.777 49.792 307.981 49.684 308.293 49.636C308.629 49.564 309.025 49.588 309.481 49.708C309.745 49.876 309.865 50.14 309.841 50.5C309.841 50.86 309.649 51.388 309.265 52.084C309.193 52.252 308.989 52.504 308.653 52.84C308.341 53.152 307.993 53.476 307.609 53.812C307.249 54.124 306.949 54.352 306.709 54.496C305.989 54.88 305.281 55.06 304.585 55.036C303.889 55.012 303.253 54.892 302.677 54.676ZM305.341 46.576C305.701 46.48 306.001 46.384 306.241 46.288C306.505 46.192 306.757 46.036 306.997 45.82C307.237 45.604 307.513 45.28 307.825 44.848C307.921 44.584 307.969 44.356 307.969 44.164C307.993 43.972 307.981 43.852 307.933 43.804C307.741 43.612 307.525 43.552 307.285 43.624C307.069 43.672 306.829 43.792 306.565 43.984C306.397 44.056 306.157 44.212 305.845 44.452C305.557 44.668 305.269 44.92 304.981 45.208C304.717 45.472 304.501 45.724 304.333 45.964C304.189 46.18 304.165 46.312 304.261 46.36C304.213 46.456 304.345 46.516 304.657 46.54C304.993 46.564 305.221 46.576 305.341 46.576Z" fill="black"/>
</svg>
