<svg width="140" height="44" viewBox="0 0 140 44" fill="none" xmlns="http://www.w3.org/2000/svg">
<rect width="140" height="44" rx="8" fill="#0D99FF"/>
<path d="M36.1429 10H17.8571C16.28 10 15 11.28 15 12.8571V31.1429C15 32.72 16.28 34 17.8571 34H36.1429C37.72 34 39 32.72 39 31.1429V12.8571C39 11.28 37.72 10 36.1429 10ZM22.4286 19.1429V30H19V19.1429H22.4286ZM19 15.9829C19 15.1829 19.6857 14.5714 20.7143 14.5714C21.7429 14.5714 22.3886 15.1829 22.4286 15.9829C22.4286 16.7829 21.7886 17.4286 20.7143 17.4286C19.6857 17.4286 19 16.7829 19 15.9829ZM35 30H31.5714C31.5714 30 31.5714 24.7086 31.5714 24.2857C31.5714 23.1429 31 22 29.5714 21.9771H29.5257C28.1429 21.9771 27.5714 23.1543 27.5714 24.2857C27.5714 24.8057 27.5714 30 27.5714 30H24.1429V19.1429H27.5714V20.6057C27.5714 20.6057 28.6743 19.1429 30.8914 19.1429C33.16 19.1429 35 20.7029 35 23.8629V30Z" fill="white"/>
<path d="M48.44 14.68H51.14V26.44H57.2V29H48.44V14.68ZM60.2636 17.78C60.0369 17.78 59.8169 17.74 59.6036 17.66C59.4036 17.5667 59.2236 17.4467 59.0636 17.3C58.9169 17.14 58.7969 16.96 58.7036 16.76C58.6236 16.56 58.5836 16.34 58.5836 16.1C58.5836 15.86 58.6236 15.64 58.7036 15.44C58.7969 15.24 58.9169 15.0667 59.0636 14.92C59.2236 14.76 59.4036 14.64 59.6036 14.56C59.8169 14.4667 60.0369 14.42 60.2636 14.42C60.7303 14.42 61.1303 14.5867 61.4636 14.92C61.7969 15.24 61.9636 15.6333 61.9636 16.1C61.9636 16.5667 61.7969 16.9667 61.4636 17.3C61.1303 17.62 60.7303 17.78 60.2636 17.78ZM58.9636 29V19.2H61.5836V29H58.9636ZM66.4394 20.48H66.5994C66.906 19.9867 67.3194 19.6 67.8394 19.32C68.3594 19.0267 68.9527 18.88 69.6194 18.88C70.2327 18.88 70.7727 18.98 71.2394 19.18C71.706 19.38 72.086 19.6667 72.3794 20.04C72.686 20.4 72.9127 20.84 73.0594 21.36C73.2194 21.8667 73.2994 22.4333 73.2994 23.06V29H70.6794V23.38C70.6794 22.6733 70.5194 22.1533 70.1994 21.82C69.8927 21.4733 69.4394 21.3 68.8394 21.3C68.4794 21.3 68.1594 21.38 67.8794 21.54C67.6127 21.6867 67.3794 21.8933 67.1794 22.16C66.9927 22.4133 66.846 22.72 66.7394 23.08C66.646 23.4267 66.5994 23.8 66.5994 24.2V29H63.9794V19.2H66.4394V20.48ZM75.4638 14.68H78.0838V22.48H78.2038L81.4838 19.2H84.7238V19.36L81.0838 22.9L85.0238 28.84V29H81.9238L79.2438 24.7L78.0838 25.84V29H75.4638V14.68ZM95.0563 26.64C94.6029 27.44 93.9896 28.0867 93.2163 28.58C92.4563 29.0733 91.5229 29.32 90.4163 29.32C89.6696 29.32 88.9763 29.1933 88.3363 28.94C87.7096 28.6733 87.1629 28.3067 86.6963 27.84C86.2296 27.3733 85.8629 26.8267 85.5963 26.2C85.3429 25.56 85.2163 24.86 85.2163 24.1C85.2163 23.3933 85.3429 22.7267 85.5963 22.1C85.8496 21.46 86.2029 20.9067 86.6563 20.44C87.1096 19.96 87.6429 19.58 88.2563 19.3C88.8829 19.02 89.5696 18.88 90.3163 18.88C91.1029 18.88 91.8029 19.0133 92.4163 19.28C93.0296 19.5333 93.5429 19.8933 93.9563 20.36C94.3696 20.8133 94.6829 21.3533 94.8963 21.98C95.1096 22.6067 95.2162 23.2867 95.2162 24.02C95.2162 24.1133 95.2162 24.1933 95.2162 24.26C95.2029 24.34 95.1963 24.4133 95.1963 24.48C95.1829 24.5467 95.1763 24.62 95.1763 24.7H87.7963C87.8496 25.1 87.9563 25.4467 88.1163 25.74C88.2896 26.02 88.4963 26.26 88.7363 26.46C88.9896 26.6467 89.2629 26.7867 89.5563 26.88C89.8496 26.96 90.1496 27 90.4563 27C91.0563 27 91.5496 26.8667 91.9363 26.6C92.3363 26.32 92.6496 25.9733 92.8763 25.56L95.0563 26.64ZM92.6763 22.84C92.6629 22.6667 92.6029 22.4733 92.4963 22.26C92.4029 22.0467 92.2563 21.8467 92.0563 21.66C91.8696 21.4733 91.6296 21.32 91.3363 21.2C91.0563 21.08 90.7163 21.02 90.3163 21.02C89.7563 21.02 89.2629 21.18 88.8363 21.5C88.4096 21.82 88.1096 22.2667 87.9363 22.84H92.6763ZM104.287 27.82H104.127C103.887 28.2333 103.514 28.5867 103.007 28.88C102.501 29.1733 101.874 29.32 101.127 29.32C100.501 29.32 99.9005 29.1933 99.3272 28.94C98.7672 28.6733 98.2672 28.3133 97.8272 27.86C97.4005 27.3933 97.0605 26.84 96.8072 26.2C96.5539 25.56 96.4272 24.86 96.4272 24.1C96.4272 23.34 96.5539 22.64 96.8072 22C97.0605 21.36 97.4005 20.8133 97.8272 20.36C98.2672 19.8933 98.7672 19.5333 99.3272 19.28C99.9005 19.0133 100.501 18.88 101.127 18.88C101.874 18.88 102.501 19.0267 103.007 19.32C103.514 19.6133 103.887 19.9667 104.127 20.38H104.287L104.127 18.98V14.68H106.747V29H104.287V27.82ZM101.667 26.9C102.014 26.9 102.341 26.84 102.647 26.72C102.967 26.5867 103.247 26.4 103.487 26.16C103.727 25.92 103.921 25.6267 104.067 25.28C104.214 24.9333 104.287 24.54 104.287 24.1C104.287 23.66 104.214 23.2667 104.067 22.92C103.921 22.5733 103.727 22.28 103.487 22.04C103.247 21.8 102.967 21.62 102.647 21.5C102.341 21.3667 102.014 21.3 101.667 21.3C101.321 21.3 100.987 21.3667 100.667 21.5C100.361 21.6333 100.087 21.82 99.8472 22.06C99.6072 22.3 99.4139 22.5933 99.2672 22.94C99.1205 23.2867 99.0472 23.6733 99.0472 24.1C99.0472 24.5267 99.1205 24.9133 99.2672 25.26C99.4139 25.6067 99.6072 25.9 99.8472 26.14C100.087 26.38 100.361 26.5667 100.667 26.7C100.987 26.8333 101.321 26.9 101.667 26.9ZM109.299 14.68H111.999V29H109.299V14.68ZM117.025 20.48H117.185C117.492 19.9867 117.905 19.6 118.425 19.32C118.945 19.0267 119.539 18.88 120.205 18.88C120.819 18.88 121.359 18.98 121.825 19.18C122.292 19.38 122.672 19.6667 122.965 20.04C123.272 20.4 123.499 20.84 123.645 21.36C123.805 21.8667 123.885 22.4333 123.885 23.06V29H121.265V23.38C121.265 22.6733 121.105 22.1533 120.785 21.82C120.479 21.4733 120.025 21.3 119.425 21.3C119.065 21.3 118.745 21.38 118.465 21.54C118.199 21.6867 117.965 21.8933 117.765 22.16C117.579 22.4133 117.432 22.72 117.325 23.08C117.232 23.4267 117.185 23.8 117.185 24.2V29H114.565V19.2H117.025V20.48Z" fill="white"/>
</svg>
