<svg height="32" viewBox="0 0 55 20" fill="none" xmlns="http://www.w3.org/2000/svg">
<rect width="54.375" height="20" rx="4" fill="#0D99FF"/>
<path d="M8.72 6.84H10.07V12.72H13.1V14H8.72V6.84ZM14.6318 8.39C14.5185 8.39 14.4085 8.37 14.3018 8.33C14.2018 8.28333 14.1118 8.22333 14.0318 8.15C13.9585 8.07 13.8985 7.98 13.8518 7.88C13.8118 7.78 13.7918 7.67 13.7918 7.55C13.7918 7.43 13.8118 7.32 13.8518 7.22C13.8985 7.12 13.9585 7.03333 14.0318 6.96C14.1118 6.88 14.2018 6.82 14.3018 6.78C14.4085 6.73333 14.5185 6.71 14.6318 6.71C14.8651 6.71 15.0651 6.79333 15.2318 6.96C15.3985 7.12 15.4818 7.31667 15.4818 7.55C15.4818 7.78333 15.3985 7.98333 15.2318 8.15C15.0651 8.31 14.8651 8.39 14.6318 8.39ZM13.9818 14V9.1H15.2918V14H13.9818ZM17.7197 9.74H17.7997C17.953 9.49333 18.1597 9.3 18.4197 9.16C18.6797 9.01333 18.9764 8.94 19.3097 8.94C19.6164 8.94 19.8864 8.99 20.1197 9.09C20.353 9.19 20.543 9.33333 20.6897 9.52C20.843 9.7 20.9564 9.92 21.0297 10.18C21.1097 10.4333 21.1497 10.7167 21.1497 11.03V14H19.8397V11.19C19.8397 10.8367 19.7597 10.5767 19.5997 10.41C19.4464 10.2367 19.2197 10.15 18.9197 10.15C18.7397 10.15 18.5797 10.19 18.4397 10.27C18.3064 10.3433 18.1897 10.4467 18.0897 10.58C17.9964 10.7067 17.923 10.86 17.8697 11.04C17.823 11.2133 17.7997 11.4 17.7997 11.6V14H16.4897V9.1H17.7197V9.74ZM22.2319 6.84H23.5419V10.74H23.6019L25.2419 9.1H26.8619V9.18L25.0419 10.95L27.0119 13.92V14H25.4619L24.1219 11.85L23.5419 12.42V14H22.2319V6.84ZM32.0281 12.82C31.8015 13.22 31.4948 13.5433 31.1081 13.79C30.7281 14.0367 30.2615 14.16 29.7081 14.16C29.3348 14.16 28.9881 14.0967 28.6681 13.97C28.3548 13.8367 28.0815 13.6533 27.8481 13.42C27.6148 13.1867 27.4315 12.9133 27.2981 12.6C27.1715 12.28 27.1081 11.93 27.1081 11.55C27.1081 11.1967 27.1715 10.8633 27.2981 10.55C27.4248 10.23 27.6015 9.95333 27.8281 9.72C28.0548 9.48 28.3215 9.29 28.6281 9.15C28.9415 9.01 29.2848 8.94 29.6581 8.94C30.0515 8.94 30.4015 9.00667 30.7081 9.14C31.0148 9.26667 31.2715 9.44667 31.4781 9.68C31.6848 9.90667 31.8415 10.1767 31.9481 10.49C32.0548 10.8033 32.1081 11.1433 32.1081 11.51C32.1081 11.5567 32.1081 11.5967 32.1081 11.63C32.1015 11.67 32.0981 11.7067 32.0981 11.74C32.0915 11.7733 32.0881 11.81 32.0881 11.85H28.3981C28.4248 12.05 28.4781 12.2233 28.5581 12.37C28.6448 12.51 28.7481 12.63 28.8681 12.73C28.9948 12.8233 29.1315 12.8933 29.2781 12.94C29.4248 12.98 29.5748 13 29.7281 13C30.0281 13 30.2748 12.9333 30.4681 12.8C30.6681 12.66 30.8248 12.4867 30.9381 12.28L32.0281 12.82ZM30.8381 10.92C30.8315 10.8333 30.8015 10.7367 30.7481 10.63C30.7015 10.5233 30.6281 10.4233 30.5281 10.33C30.4348 10.2367 30.3148 10.16 30.1681 10.1C30.0281 10.04 29.8581 10.01 29.6581 10.01C29.3781 10.01 29.1315 10.09 28.9181 10.25C28.7048 10.41 28.5548 10.6333 28.4681 10.92H30.8381ZM36.6436 13.41H36.5636C36.4436 13.6167 36.2569 13.7933 36.0036 13.94C35.7503 14.0867 35.4369 14.16 35.0636 14.16C34.7503 14.16 34.4503 14.0967 34.1636 13.97C33.8836 13.8367 33.6336 13.6567 33.4136 13.43C33.2003 13.1967 33.0303 12.92 32.9036 12.6C32.7769 12.28 32.7136 11.93 32.7136 11.55C32.7136 11.17 32.7769 10.82 32.9036 10.5C33.0303 10.18 33.2003 9.90667 33.4136 9.68C33.6336 9.44667 33.8836 9.26667 34.1636 9.14C34.4503 9.00667 34.7503 8.94 35.0636 8.94C35.4369 8.94 35.7503 9.01333 36.0036 9.16C36.2569 9.30667 36.4436 9.48333 36.5636 9.69H36.6436L36.5636 8.99V6.84H37.8736V14H36.6436V13.41ZM35.3336 12.95C35.5069 12.95 35.6703 12.92 35.8236 12.86C35.9836 12.7933 36.1236 12.7 36.2436 12.58C36.3636 12.46 36.4603 12.3133 36.5336 12.14C36.6069 11.9667 36.6436 11.77 36.6436 11.55C36.6436 11.33 36.6069 11.1333 36.5336 10.96C36.4603 10.7867 36.3636 10.64 36.2436 10.52C36.1236 10.4 35.9836 10.31 35.8236 10.25C35.6703 10.1833 35.5069 10.15 35.3336 10.15C35.1603 10.15 34.9936 10.1833 34.8336 10.25C34.6803 10.3167 34.5436 10.41 34.4236 10.53C34.3036 10.65 34.2069 10.7967 34.1336 10.97C34.0603 11.1433 34.0236 11.3367 34.0236 11.55C34.0236 11.7633 34.0603 11.9567 34.1336 12.13C34.2069 12.3033 34.3036 12.45 34.4236 12.57C34.5436 12.69 34.6803 12.7833 34.8336 12.85C34.9936 12.9167 35.1603 12.95 35.3336 12.95ZM39.1497 6.84H40.4997V14H39.1497V6.84ZM43.0127 9.74H43.0927C43.246 9.49333 43.4527 9.3 43.7127 9.16C43.9727 9.01333 44.2693 8.94 44.6027 8.94C44.9093 8.94 45.1793 8.99 45.4127 9.09C45.646 9.19 45.836 9.33333 45.9827 9.52C46.136 9.7 46.2493 9.92 46.3227 10.18C46.4027 10.4333 46.4427 10.7167 46.4427 11.03V14H45.1327V11.19C45.1327 10.8367 45.0527 10.5767 44.8927 10.41C44.7393 10.2367 44.5127 10.15 44.2127 10.15C44.0327 10.15 43.8727 10.19 43.7327 10.27C43.5993 10.3433 43.4827 10.4467 43.3827 10.58C43.2893 10.7067 43.216 10.86 43.1627 11.04C43.116 11.2133 43.0927 11.4 43.0927 11.6V14H41.7827V9.1H43.0127V9.74Z" fill="white"/>
</svg>
