<svg width="116" height="44" viewBox="0 0 116 44" fill="none" xmlns="http://www.w3.org/2000/svg">
<rect width="116" height="44" rx="8" fill="black"/>
<path d="M19.44 29V14.68H24.48C25.16 14.68 25.7933 14.7933 26.38 15.02C26.98 15.2333 27.5 15.54 27.94 15.94C28.38 16.34 28.7267 16.82 28.98 17.38C29.2333 17.9267 29.36 18.5333 29.36 19.2C29.36 19.88 29.2333 20.5 28.98 21.06C28.7267 21.6067 28.38 22.08 27.94 22.48C27.5 22.88 26.98 23.1933 26.38 23.42C25.7933 23.6333 25.16 23.74 24.48 23.74H22.14V29H19.44ZM24.52 21.18C25.2267 21.18 25.76 20.98 26.12 20.58C26.48 20.18 26.66 19.72 26.66 19.2C26.66 18.9467 26.6133 18.7 26.52 18.46C26.44 18.22 26.3067 18.0133 26.12 17.84C25.9467 17.6533 25.7267 17.5067 25.46 17.4C25.1933 17.2933 24.88 17.24 24.52 17.24H22.14V21.18H24.52ZM34.8928 18.88C35.6528 18.88 36.3461 19.0133 36.9728 19.28C37.6128 19.5333 38.1595 19.8933 38.6128 20.36C39.0795 20.8133 39.4395 21.36 39.6928 22C39.9595 22.64 40.0928 23.34 40.0928 24.1C40.0928 24.86 39.9595 25.56 39.6928 26.2C39.4395 26.84 39.0795 27.3933 38.6128 27.86C38.1595 28.3133 37.6128 28.6733 36.9728 28.94C36.3461 29.1933 35.6528 29.32 34.8928 29.32C34.1328 29.32 33.4328 29.1933 32.7928 28.94C32.1661 28.6733 31.6195 28.3133 31.1528 27.86C30.6995 27.3933 30.3395 26.84 30.0728 26.2C29.8195 25.56 29.6928 24.86 29.6928 24.1C29.6928 23.34 29.8195 22.64 30.0728 22C30.3395 21.36 30.6995 20.8133 31.1528 20.36C31.6195 19.8933 32.1661 19.5333 32.7928 19.28C33.4328 19.0133 34.1328 18.88 34.8928 18.88ZM34.8928 26.9C35.2261 26.9 35.5461 26.84 35.8528 26.72C36.1728 26.5867 36.4528 26.4 36.6928 26.16C36.9328 25.92 37.1195 25.6267 37.2528 25.28C37.3995 24.9333 37.4728 24.54 37.4728 24.1C37.4728 23.66 37.3995 23.2667 37.2528 22.92C37.1195 22.5733 36.9328 22.28 36.6928 22.04C36.4528 21.8 36.1728 21.62 35.8528 21.5C35.5461 21.3667 35.2261 21.3 34.8928 21.3C34.5461 21.3 34.2195 21.3667 33.9128 21.5C33.6061 21.62 33.3328 21.8 33.0928 22.04C32.8528 22.28 32.6595 22.5733 32.5128 22.92C32.3795 23.2667 32.3128 23.66 32.3128 24.1C32.3128 24.54 32.3795 24.9333 32.5128 25.28C32.6595 25.6267 32.8528 25.92 33.0928 26.16C33.3328 26.4 33.6061 26.5867 33.9128 26.72C34.2195 26.84 34.5461 26.9 34.8928 26.9ZM44.0409 20.56H44.2009C44.4676 20.0667 44.8543 19.6733 45.3609 19.38C45.8809 19.0733 46.4543 18.92 47.0809 18.92C47.3076 18.92 47.4876 18.9267 47.6209 18.94C47.7543 18.9533 47.8809 18.98 48.0009 19.02V21.62C47.8543 21.5533 47.6876 21.5 47.5009 21.46C47.3276 21.42 47.1143 21.4 46.8609 21.4C46.0343 21.4 45.3809 21.6533 44.9009 22.16C44.4343 22.6533 44.2009 23.3333 44.2009 24.2V29H41.5809V19.2H44.0409V20.56ZM50.9009 21.44H49.1809V19.2H50.9009V16.2H53.5209V19.2H55.9209V21.44H53.5209V25.24C53.5209 25.4667 53.5409 25.68 53.5809 25.88C53.6343 26.0667 53.7276 26.2267 53.8609 26.36C54.0476 26.5733 54.3143 26.68 54.6609 26.68C54.8876 26.68 55.0676 26.66 55.2009 26.62C55.3343 26.5667 55.4609 26.5 55.5809 26.42L56.3209 28.72C56.0143 28.8667 55.6809 28.9733 55.3209 29.04C54.9743 29.12 54.5876 29.16 54.1609 29.16C53.6676 29.16 53.2209 29.0867 52.8209 28.94C52.4343 28.78 52.1076 28.5667 51.8409 28.3C51.2143 27.7 50.9009 26.8467 50.9009 25.74V21.44ZM62.8858 14.52C63.2591 14.52 63.6058 14.5533 63.9258 14.62C64.2458 14.6867 64.5324 14.7733 64.7858 14.88L64.0458 17.22C63.9124 17.1533 63.7658 17.1 63.6058 17.06C63.4591 17.02 63.2724 17 63.0458 17C62.6591 17 62.3524 17.1267 62.1258 17.38C61.8991 17.62 61.7858 17.96 61.7858 18.4V19.2H64.2258V21.44H61.7858V29H59.1658V21.44H57.4058V19.2H59.1658V18.24C59.1658 17.64 59.2524 17.1133 59.4258 16.66C59.6124 16.1933 59.8724 15.8067 60.2058 15.5C60.5391 15.18 60.9324 14.94 61.3858 14.78C61.8391 14.6067 62.3391 14.52 62.8858 14.52ZM70.0295 18.88C70.7895 18.88 71.4829 19.0133 72.1095 19.28C72.7495 19.5333 73.2962 19.8933 73.7495 20.36C74.2162 20.8133 74.5762 21.36 74.8295 22C75.0962 22.64 75.2295 23.34 75.2295 24.1C75.2295 24.86 75.0962 25.56 74.8295 26.2C74.5762 26.84 74.2162 27.3933 73.7495 27.86C73.2962 28.3133 72.7495 28.6733 72.1095 28.94C71.4829 29.1933 70.7895 29.32 70.0295 29.32C69.2695 29.32 68.5695 29.1933 67.9295 28.94C67.3029 28.6733 66.7562 28.3133 66.2895 27.86C65.8362 27.3933 65.4762 26.84 65.2095 26.2C64.9562 25.56 64.8295 24.86 64.8295 24.1C64.8295 23.34 64.9562 22.64 65.2095 22C65.4762 21.36 65.8362 20.8133 66.2895 20.36C66.7562 19.8933 67.3029 19.5333 67.9295 19.28C68.5695 19.0133 69.2695 18.88 70.0295 18.88ZM70.0295 26.9C70.3629 26.9 70.6829 26.84 70.9895 26.72C71.3095 26.5867 71.5895 26.4 71.8295 26.16C72.0695 25.92 72.2562 25.6267 72.3895 25.28C72.5362 24.9333 72.6095 24.54 72.6095 24.1C72.6095 23.66 72.5362 23.2667 72.3895 22.92C72.2562 22.5733 72.0695 22.28 71.8295 22.04C71.5895 21.8 71.3095 21.62 70.9895 21.5C70.6829 21.3667 70.3629 21.3 70.0295 21.3C69.6829 21.3 69.3562 21.3667 69.0495 21.5C68.7429 21.62 68.4695 21.8 68.2295 22.04C67.9895 22.28 67.7962 22.5733 67.6495 22.92C67.5162 23.2667 67.4495 23.66 67.4495 24.1C67.4495 24.54 67.5162 24.9333 67.6495 25.28C67.7962 25.6267 67.9895 25.92 68.2295 26.16C68.4695 26.4 68.7429 26.5867 69.0495 26.72C69.3562 26.84 69.6829 26.9 70.0295 26.9ZM76.8153 29V14.68H79.4353V29H76.8153ZM83.1386 17.78C82.9119 17.78 82.6919 17.74 82.4786 17.66C82.2786 17.5667 82.0986 17.4467 81.9386 17.3C81.7919 17.14 81.6719 16.96 81.5786 16.76C81.4986 16.56 81.4586 16.34 81.4586 16.1C81.4586 15.86 81.4986 15.64 81.5786 15.44C81.6719 15.24 81.7919 15.0667 81.9386 14.92C82.0986 14.76 82.2786 14.64 82.4786 14.56C82.6919 14.4667 82.9119 14.42 83.1386 14.42C83.6053 14.42 84.0053 14.5867 84.3386 14.92C84.6719 15.24 84.8386 15.6333 84.8386 16.1C84.8386 16.5667 84.6719 16.9667 84.3386 17.3C84.0053 17.62 83.6053 17.78 83.1386 17.78ZM81.8386 29V19.2H84.4586V29H81.8386ZM91.3967 18.88C92.1567 18.88 92.8501 19.0133 93.4767 19.28C94.1167 19.5333 94.6634 19.8933 95.1167 20.36C95.5834 20.8133 95.9434 21.36 96.1967 22C96.4634 22.64 96.5967 23.34 96.5967 24.1C96.5967 24.86 96.4634 25.56 96.1967 26.2C95.9434 26.84 95.5834 27.3933 95.1167 27.86C94.6634 28.3133 94.1167 28.6733 93.4767 28.94C92.8501 29.1933 92.1567 29.32 91.3967 29.32C90.6367 29.32 89.9367 29.1933 89.2967 28.94C88.6701 28.6733 88.1234 28.3133 87.6567 27.86C87.2034 27.3933 86.8434 26.84 86.5767 26.2C86.3234 25.56 86.1967 24.86 86.1967 24.1C86.1967 23.34 86.3234 22.64 86.5767 22C86.8434 21.36 87.2034 20.8133 87.6567 20.36C88.1234 19.8933 88.6701 19.5333 89.2967 19.28C89.9367 19.0133 90.6367 18.88 91.3967 18.88ZM91.3967 26.9C91.7301 26.9 92.0501 26.84 92.3567 26.72C92.6767 26.5867 92.9567 26.4 93.1967 26.16C93.4367 25.92 93.6234 25.6267 93.7567 25.28C93.9034 24.9333 93.9767 24.54 93.9767 24.1C93.9767 23.66 93.9034 23.2667 93.7567 22.92C93.6234 22.5733 93.4367 22.28 93.1967 22.04C92.9567 21.8 92.6767 21.62 92.3567 21.5C92.0501 21.3667 91.7301 21.3 91.3967 21.3C91.0501 21.3 90.7234 21.3667 90.4167 21.5C90.1101 21.62 89.8367 21.8 89.5967 22.04C89.3567 22.28 89.1634 22.5733 89.0167 22.92C88.8834 23.2667 88.8167 23.66 88.8167 24.1C88.8167 24.54 88.8834 24.9333 89.0167 25.28C89.1634 25.6267 89.3567 25.92 89.5967 26.16C89.8367 26.4 90.1101 26.5867 90.4167 26.72C90.7234 26.84 91.0501 26.9 91.3967 26.9Z" fill="white"/>
</svg>
