<svg width="56" height="20" viewBox="0 0 56 20" fill="none" xmlns="http://www.w3.org/2000/svg">
<rect width="56" height="20" rx="4" fill="black"/>
<path d="M8.72 14V6.84H11.24C11.58 6.84 11.8967 6.89667 12.19 7.01C12.49 7.11667 12.75 7.27 12.97 7.47C13.19 7.67 13.3633 7.91 13.49 8.19C13.6167 8.46333 13.68 8.76667 13.68 9.1C13.68 9.44 13.6167 9.75 13.49 10.03C13.3633 10.3033 13.19 10.54 12.97 10.74C12.75 10.94 12.49 11.0967 12.19 11.21C11.8967 11.3167 11.58 11.37 11.24 11.37H10.07V14H8.72ZM11.26 10.09C11.6133 10.09 11.88 9.99 12.06 9.79C12.24 9.59 12.33 9.36 12.33 9.1C12.33 8.97333 12.3067 8.85 12.26 8.73C12.22 8.61 12.1533 8.50667 12.06 8.42C11.9733 8.32667 11.8633 8.25333 11.73 8.2C11.5967 8.14667 11.44 8.12 11.26 8.12H10.07V10.09H11.26ZM16.4464 8.94C16.8264 8.94 17.1731 9.00667 17.4864 9.14C17.8064 9.26667 18.0797 9.44667 18.3064 9.68C18.5397 9.90667 18.7197 10.18 18.8464 10.5C18.9797 10.82 19.0464 11.17 19.0464 11.55C19.0464 11.93 18.9797 12.28 18.8464 12.6C18.7197 12.92 18.5397 13.1967 18.3064 13.43C18.0797 13.6567 17.8064 13.8367 17.4864 13.97C17.1731 14.0967 16.8264 14.16 16.4464 14.16C16.0664 14.16 15.7164 14.0967 15.3964 13.97C15.0831 13.8367 14.8097 13.6567 14.5764 13.43C14.3497 13.1967 14.1697 12.92 14.0364 12.6C13.9097 12.28 13.8464 11.93 13.8464 11.55C13.8464 11.17 13.9097 10.82 14.0364 10.5C14.1697 10.18 14.3497 9.90667 14.5764 9.68C14.8097 9.44667 15.0831 9.26667 15.3964 9.14C15.7164 9.00667 16.0664 8.94 16.4464 8.94ZM16.4464 12.95C16.6131 12.95 16.7731 12.92 16.9264 12.86C17.0864 12.7933 17.2264 12.7 17.3464 12.58C17.4664 12.46 17.5597 12.3133 17.6264 12.14C17.6997 11.9667 17.7364 11.77 17.7364 11.55C17.7364 11.33 17.6997 11.1333 17.6264 10.96C17.5597 10.7867 17.4664 10.64 17.3464 10.52C17.2264 10.4 17.0864 10.31 16.9264 10.25C16.7731 10.1833 16.6131 10.15 16.4464 10.15C16.2731 10.15 16.1097 10.1833 15.9564 10.25C15.8031 10.31 15.6664 10.4 15.5464 10.52C15.4264 10.64 15.3297 10.7867 15.2564 10.96C15.1897 11.1333 15.1564 11.33 15.1564 11.55C15.1564 11.77 15.1897 11.9667 15.2564 12.14C15.3297 12.3133 15.4264 12.46 15.5464 12.58C15.6664 12.7 15.8031 12.7933 15.9564 12.86C16.1097 12.92 16.2731 12.95 16.4464 12.95ZM21.0205 9.78H21.1005C21.2338 9.53333 21.4271 9.33667 21.6805 9.19C21.9405 9.03667 22.2271 8.96 22.5405 8.96C22.6538 8.96 22.7438 8.96333 22.8105 8.97C22.8771 8.97667 22.9405 8.99 23.0005 9.01V10.31C22.9271 10.2767 22.8438 10.25 22.7505 10.23C22.6638 10.21 22.5571 10.2 22.4305 10.2C22.0171 10.2 21.6905 10.3267 21.4505 10.58C21.2171 10.8267 21.1005 11.1667 21.1005 11.6V14H19.7905V9.1H21.0205V9.78ZM24.4505 10.22H23.5905V9.1H24.4505V7.6H25.7605V9.1H26.9605V10.22H25.7605V12.12C25.7605 12.2333 25.7705 12.34 25.7905 12.44C25.8171 12.5333 25.8638 12.6133 25.9305 12.68C26.0238 12.7867 26.1571 12.84 26.3305 12.84C26.4438 12.84 26.5338 12.83 26.6005 12.81C26.6671 12.7833 26.7305 12.75 26.7905 12.71L27.1605 13.86C27.0071 13.9333 26.8405 13.9867 26.6605 14.02C26.4871 14.06 26.2938 14.08 26.0805 14.08C25.8338 14.08 25.6105 14.0433 25.4105 13.97C25.2171 13.89 25.0538 13.7833 24.9205 13.65C24.6071 13.35 24.4505 12.9233 24.4505 12.37V10.22ZM30.4429 6.76C30.6296 6.76 30.8029 6.77667 30.9629 6.81C31.1229 6.84333 31.2662 6.88667 31.3929 6.94L31.0229 8.11C30.9562 8.07667 30.8829 8.05 30.8029 8.03C30.7296 8.01 30.6362 8 30.5229 8C30.3296 8 30.1762 8.06333 30.0629 8.19C29.9496 8.31 29.8929 8.48 29.8929 8.7V9.1H31.1129V10.22H29.8929V14H28.5829V10.22H27.7029V9.1H28.5829V8.62C28.5829 8.32 28.6262 8.05667 28.7129 7.83C28.8062 7.59667 28.9362 7.40333 29.1029 7.25C29.2696 7.09 29.4662 6.97 29.6929 6.89C29.9196 6.80333 30.1696 6.76 30.4429 6.76ZM34.0148 8.94C34.3948 8.94 34.7414 9.00667 35.0548 9.14C35.3748 9.26667 35.6481 9.44667 35.8748 9.68C36.1081 9.90667 36.2881 10.18 36.4148 10.5C36.5481 10.82 36.6148 11.17 36.6148 11.55C36.6148 11.93 36.5481 12.28 36.4148 12.6C36.2881 12.92 36.1081 13.1967 35.8748 13.43C35.6481 13.6567 35.3748 13.8367 35.0548 13.97C34.7414 14.0967 34.3948 14.16 34.0148 14.16C33.6348 14.16 33.2848 14.0967 32.9648 13.97C32.6514 13.8367 32.3781 13.6567 32.1448 13.43C31.9181 13.1967 31.7381 12.92 31.6048 12.6C31.4781 12.28 31.4148 11.93 31.4148 11.55C31.4148 11.17 31.4781 10.82 31.6048 10.5C31.7381 10.18 31.9181 9.90667 32.1448 9.68C32.3781 9.44667 32.6514 9.26667 32.9648 9.14C33.2848 9.00667 33.6348 8.94 34.0148 8.94ZM34.0148 12.95C34.1814 12.95 34.3414 12.92 34.4948 12.86C34.6548 12.7933 34.7948 12.7 34.9148 12.58C35.0348 12.46 35.1281 12.3133 35.1948 12.14C35.2681 11.9667 35.3048 11.77 35.3048 11.55C35.3048 11.33 35.2681 11.1333 35.1948 10.96C35.1281 10.7867 35.0348 10.64 34.9148 10.52C34.7948 10.4 34.6548 10.31 34.4948 10.25C34.3414 10.1833 34.1814 10.15 34.0148 10.15C33.8414 10.15 33.6781 10.1833 33.5248 10.25C33.3714 10.31 33.2348 10.4 33.1148 10.52C32.9948 10.64 32.8981 10.7867 32.8248 10.96C32.7581 11.1333 32.7248 11.33 32.7248 11.55C32.7248 11.77 32.7581 11.9667 32.8248 12.14C32.8981 12.3133 32.9948 12.46 33.1148 12.58C33.2348 12.7 33.3714 12.7933 33.5248 12.86C33.6781 12.92 33.8414 12.95 34.0148 12.95ZM37.4077 14V6.84H38.7177V14H37.4077ZM40.5693 8.39C40.456 8.39 40.346 8.37 40.2393 8.33C40.1393 8.28333 40.0493 8.22333 39.9693 8.15C39.896 8.07 39.836 7.98 39.7893 7.88C39.7493 7.78 39.7293 7.67 39.7293 7.55C39.7293 7.43 39.7493 7.32 39.7893 7.22C39.836 7.12 39.896 7.03333 39.9693 6.96C40.0493 6.88 40.1393 6.82 40.2393 6.78C40.346 6.73333 40.456 6.71 40.5693 6.71C40.8026 6.71 41.0026 6.79333 41.1693 6.96C41.336 7.12 41.4193 7.31667 41.4193 7.55C41.4193 7.78333 41.336 7.98333 41.1693 8.15C41.0026 8.31 40.8026 8.39 40.5693 8.39ZM39.9193 14V9.1H41.2293V14H39.9193ZM44.6984 8.94C45.0784 8.94 45.425 9.00667 45.7384 9.14C46.0584 9.26667 46.3317 9.44667 46.5584 9.68C46.7917 9.90667 46.9717 10.18 47.0984 10.5C47.2317 10.82 47.2984 11.17 47.2984 11.55C47.2984 11.93 47.2317 12.28 47.0984 12.6C46.9717 12.92 46.7917 13.1967 46.5584 13.43C46.3317 13.6567 46.0584 13.8367 45.7384 13.97C45.425 14.0967 45.0784 14.16 44.6984 14.16C44.3184 14.16 43.9684 14.0967 43.6484 13.97C43.335 13.8367 43.0617 13.6567 42.8284 13.43C42.6017 13.1967 42.4217 12.92 42.2884 12.6C42.1617 12.28 42.0984 11.93 42.0984 11.55C42.0984 11.17 42.1617 10.82 42.2884 10.5C42.4217 10.18 42.6017 9.90667 42.8284 9.68C43.0617 9.44667 43.335 9.26667 43.6484 9.14C43.9684 9.00667 44.3184 8.94 44.6984 8.94ZM44.6984 12.95C44.865 12.95 45.025 12.92 45.1784 12.86C45.3384 12.7933 45.4784 12.7 45.5984 12.58C45.7184 12.46 45.8117 12.3133 45.8784 12.14C45.9517 11.9667 45.9884 11.77 45.9884 11.55C45.9884 11.33 45.9517 11.1333 45.8784 10.96C45.8117 10.7867 45.7184 10.64 45.5984 10.52C45.4784 10.4 45.3384 10.31 45.1784 10.25C45.025 10.1833 44.865 10.15 44.6984 10.15C44.525 10.15 44.3617 10.1833 44.2084 10.25C44.055 10.31 43.9184 10.4 43.7984 10.52C43.6784 10.64 43.5817 10.7867 43.5084 10.96C43.4417 11.1333 43.4084 11.33 43.4084 11.55C43.4084 11.77 43.4417 11.9667 43.5084 12.14C43.5817 12.3133 43.6784 12.46 43.7984 12.58C43.9184 12.7 44.055 12.7933 44.2084 12.86C44.3617 12.92 44.525 12.95 44.6984 12.95Z" fill="white"/>
</svg>
